<?xml version="1.0" encoding="UTF-8" standalone="no"?>
<!-- Created with Inkscape (http://www.inkscape.org/) -->
<svg
   xmlns:dc="http://purl.org/dc/elements/1.1/"
   xmlns:cc="http://web.resource.org/cc/"
   xmlns:rdf="http://www.w3.org/1999/02/22-rdf-syntax-ns#"
   xmlns:svg="http://www.w3.org/2000/svg"
   xmlns="http://www.w3.org/2000/svg"
   xmlns:xlink="http://www.w3.org/1999/xlink"
   xmlns:sodipodi="http://inkscape.sourceforge.net/DTD/sodipodi-0.dtd"
   xmlns:inkscape="http://www.inkscape.org/namespaces/inkscape"
   width="210mm"
   height="297mm"
   id="svg2"
   sodipodi:version="0.32"
   inkscape:version="0.43"
   sodipodi:docbase="D:\Desktop\cb-full\resources\startup-screen"
   sodipodi:docname="splash-screen.svg"
   inkscape:export-filename="D:\Desktop\splash_new.png"
   inkscape:export-xdpi="71.956215"
   inkscape:export-ydpi="71.956215">
  <defs
     id="defs4">
    <linearGradient
       id="linearGradient2336">
      <stop
         style="stop-color:#e6e6ff;stop-opacity:1;"
         offset="0"
         id="stop2338" />
      <stop
         style="stop-color:#e6e6ff;stop-opacity:0;"
         offset="1"
         id="stop2340" />
    </linearGradient>
    <linearGradient
       id="linearGradient2409">
      <stop
         style="stop-color:#8080b4;stop-opacity:1;"
         offset="0"
         id="stop2411" />
      <stop
         style="stop-color:#0000b4;stop-opacity:0;"
         offset="1"
         id="stop2413" />
    </linearGradient>
    <linearGradient
       id="linearGradient2231">
      <stop
         style="stop-color:#ffffff;stop-opacity:1;"
         offset="0"
         id="stop2233" />
      <stop
         style="stop-color:#ffffff;stop-opacity:0;"
         offset="1"
         id="stop2235" />
    </linearGradient>
    <linearGradient
       id="linearGradient4165">
      <stop
         style="stop-color:#ffffff;stop-opacity:0;"
         offset="0"
         id="stop4167" />
      <stop
         id="stop4179"
         offset="0.5"
         style="stop-color:#ffffff;stop-opacity:1;" />
      <stop
         style="stop-color:#ffffff;stop-opacity:0;"
         offset="1"
         id="stop4169" />
    </linearGradient>
    <linearGradient
       inkscape:collect="always"
       xlink:href="#linearGradient4165"
       id="linearGradient1506"
       gradientUnits="userSpaceOnUse"
       x1="410.3894"
       y1="402.28442"
       x2="410.3894"
       y2="416.49423" />
    <linearGradient
       inkscape:collect="always"
       xlink:href="#linearGradient4165"
       id="linearGradient1508"
       gradientUnits="userSpaceOnUse"
       x1="410.3894"
       y1="402.28442"
       x2="410.3894"
       y2="416.49423" />
    <linearGradient
       inkscape:collect="always"
       xlink:href="#linearGradient2409"
       id="linearGradient1518"
       gradientUnits="userSpaceOnUse"
       gradientTransform="translate(-4.668287,-244.6007)"
       x1="593.48175"
       y1="512.12"
       x2="593.58752"
       y2="512.47675" />
    <linearGradient
       inkscape:collect="always"
       xlink:href="#linearGradient4165"
       id="linearGradient1520"
       gradientUnits="userSpaceOnUse"
       x1="410.3894"
       y1="402.28442"
       x2="410.3894"
       y2="416.49423" />
    <linearGradient
       inkscape:collect="always"
       xlink:href="#linearGradient4165"
       id="linearGradient1522"
       gradientUnits="userSpaceOnUse"
       x1="410.3894"
       y1="402.28442"
       x2="410.3894"
       y2="416.49423" />
    <radialGradient
       inkscape:collect="always"
       xlink:href="#linearGradient2231"
       id="radialGradient3471"
       gradientUnits="userSpaceOnUse"
       gradientTransform="matrix(0.586084,-2.624871e-3,-1.3786e-8,0.110057,199.5505,183.5781)"
       cx="560.88086"
       cy="666.18005"
       fx="560.88086"
       fy="666.18005"
       r="27.951265" />
    <radialGradient
       inkscape:collect="always"
       xlink:href="#linearGradient2231"
       id="radialGradient3474"
       gradientUnits="userSpaceOnUse"
       gradientTransform="matrix(0.959453,-0.253171,6.089627e-2,0.248445,-58.4642,230.9006)"
       cx="597.01886"
       cy="423.17859"
       fx="597.01886"
       fy="423.17859"
       r="27.951265" />
    <radialGradient
       inkscape:collect="always"
       xlink:href="#linearGradient2231"
       id="radialGradient3477"
       gradientUnits="userSpaceOnUse"
       gradientTransform="matrix(0.207134,-1.694801,0.158612,2.244895e-2,348.2704,1221.704)"
       cx="602.10168"
       cy="507.16177"
       fx="602.10168"
       fy="507.16177"
       r="27.951265" />
    <linearGradient
       inkscape:collect="always"
       xlink:href="#linearGradient2336"
       id="linearGradient2278"
       gradientUnits="userSpaceOnUse"
       x1="263.95459"
       y1="531.13629"
       x2="225.00247"
       y2="594.65222"
       gradientTransform="translate(-5.266047,-242.039)" />
    <radialGradient
       inkscape:collect="always"
       xlink:href="#linearGradient2231"
       id="radialGradient2296"
       gradientUnits="userSpaceOnUse"
       gradientTransform="matrix(0.207134,-1.694801,0.158612,2.244895e-2,348.2704,1221.704)"
       cx="602.10168"
       cy="507.16177"
       fx="602.10168"
       fy="507.16177"
       r="27.951265" />
    <radialGradient
       inkscape:collect="always"
       xlink:href="#linearGradient2231"
       id="radialGradient2298"
       gradientUnits="userSpaceOnUse"
       gradientTransform="matrix(0.959453,-0.253171,6.089627e-2,0.248445,-58.4642,230.9006)"
       cx="597.01886"
       cy="423.17859"
       fx="597.01886"
       fy="423.17859"
       r="27.951265" />
    <radialGradient
       inkscape:collect="always"
       xlink:href="#linearGradient2231"
       id="radialGradient2300"
       gradientUnits="userSpaceOnUse"
       gradientTransform="matrix(0.586084,-2.624871e-3,-1.3786e-8,0.110057,199.5505,183.5781)"
       cx="560.88086"
       cy="666.18005"
       fx="560.88086"
       fy="666.18005"
       r="27.951265" />
  </defs>
  <sodipodi:namedview
     id="base"
     pagecolor="#ffffff"
     bordercolor="#666666"
     borderopacity="1.0"
     inkscape:pageopacity="0.0"
     inkscape:pageshadow="2"
     inkscape:zoom="0.64309075"
     inkscape:cx="111.76871"
     inkscape:cy="700.29902"
     inkscape:document-units="px"
     inkscape:current-layer="layer1"
     inkscape:window-width="1280"
     inkscape:window-height="924"
     inkscape:window-x="-4"
     inkscape:window-y="-4"
     showguides="true"
     inkscape:guide-bbox="true">
    <sodipodi:guide
       orientation="vertical"
       position="588.37177"
       id="guide1389" />
    <sodipodi:guide
       orientation="horizontal"
       position="891.94922"
       id="guide1391" />
    <sodipodi:guide
       orientation="horizontal"
       position="610"
       id="guide1393" />
    <sodipodi:guide
       orientation="vertical"
       position="115.47938"
       id="guide1395" />
    <sodipodi:guide
       orientation="horizontal"
       position="422.25"
       id="guide1397" />
    <sodipodi:guide
       orientation="horizontal"
       position="494.48698"
       id="guide2302" />
    <sodipodi:guide
       orientation="horizontal"
       position="482.82455"
       id="guide2304" />
    <sodipodi:guide
       orientation="horizontal"
       position="507.7044"
       id="guide2306" />
    <sodipodi:guide
       orientation="vertical"
       position="249.18723"
       id="guide2308" />
    <sodipodi:guide
       orientation="vertical"
       position="497.98571"
       id="guide2310" />
    <sodipodi:guide
       orientation="horizontal"
       position="470.77337"
       id="guide2312" />
    <sodipodi:guide
       orientation="horizontal"
       position="460.66594"
       id="guide2314" />
    <sodipodi:guide
       orientation="vertical"
       position="221.97489"
       id="guide2316" />
    <sodipodi:guide
       orientation="vertical"
       position="525.97554"
       id="guide2318" />
    <sodipodi:guide
       orientation="horizontal"
       position="869.18979"
       id="guide2320" />
    <sodipodi:guide
       orientation="horizontal"
       position="789.19794"
       id="guide2322" />
  </sodipodi:namedview>
  <metadata
     id="metadata7">
    <rdf:RDF>
      <cc:Work
         rdf:about="">
        <dc:format>image/svg+xml</dc:format>
        <dc:type
           rdf:resource="http://purl.org/dc/dcmitype/StillImage" />
      </cc:Work>
    </rdf:RDF>
  </metadata>
  <g
     inkscape:label="Ebene 1"
     id="layer1"
     inkscape:groupmode="layer">
    <path
       style="fill:none;fill-opacity:0.75000000;fill-rule:evenodd;stroke:#000000;stroke-linecap:butt;stroke-linejoin:miter;stroke-opacity:1.0000000;stroke-width:1,000000pt"
       d="M 86,856407 363,618713 L 86,856407 756,451251 M 96,856407 363,618713 L 96,856407 756,451251 M 106,856407 363,618713 L 106,856407 756,451251 M 116,856407 363,618713 L 116,856407 756,451251 M 126,856407 363,618713 L 126,856407 756,451251 M 136,856407 363,618713 L 136,856407 756,451251 M 146,856407 363,618713 L 146,856407 756,451251 M 156,856407 363,618713 L 156,856407 756,451251 M 166,856407 363,618713 L 166,856407 756,451251 M 176,856407 363,618713 L 176,856407 756,451251 M 186,856407 363,618713 L 186,856407 756,451251 M 196,856407 363,618713 L 196,856407 756,451251 M 206,856407 363,618713 L 206,856407 756,451251 M 216,856407 363,618713 L 216,856407 756,451251 M 226,856407 363,618713 L 226,856407 756,451251 M 236,856407 363,618713 L 236,856407 756,451251 M 246,856407 363,618713 L 246,856407 756,451251 M 256,856407 363,618713 L 256,856407 756,451251 M 266,856407 363,618713 L 266,856407 756,451251 M 276,856407 363,618713 L 276,856407 756,451251 M 286,856407 363,618713 L 286,856407 756,451251 M 296,856407 363,618713 L 296,856407 756,451251 M 306,856407 363,618713 L 306,856407 756,451251 M 316,856407 363,618713 L 316,856407 756,451251 M 326,856407 363,618713 L 326,856407 756,451251 M 336,856407 363,618713 L 336,856407 756,451251 M 346,856407 363,618713 L 346,856407 756,451251 M 356,856407 363,618713 L 356,856407 756,451251 M 366,856407 363,618713 L 366,856407 756,451251 M 376,856407 363,618713 L 376,856407 756,451251 M 386,856407 363,618713 L 386,856407 756,451251 M 396,856407 363,618713 L 396,856407 756,451251 M 406,856407 363,618713 L 406,856407 756,451251 M 416,856407 363,618713 L 416,856407 756,451251 M 426,856407 363,618713 L 426,856407 756,451251 M 436,856407 363,618713 L 436,856407 756,451251 M 446,856407 363,618713 L 446,856407 756,451251 M 456,856407 363,618713 L 456,856407 756,451251 M 466,856407 363,618713 L 466,856407 756,451251 M 476,856407 363,618713 L 476,856407 756,451251 M 486,856407 363,618713 L 486,856407 756,451251 M 496,856407 363,618713 L 496,856407 756,451251 M 506,856407 363,618713 L 506,856407 756,451251 M 516,856407 363,618713 L 516,856407 756,451251 M 526,856407 363,618713 L 526,856407 756,451251 M 536,856407 363,618713 L 536,856407 756,451251 M 546,856407 363,618713 L 546,856407 756,451251 M 556,856407 363,618713 L 556,856407 756,451251 M 566,856407 363,618713 L 566,856407 756,451251 M 576,856407 363,618713 L 576,856407 756,451251 M 586,856407 363,618713 L 586,856407 756,451251 M 596,856407 363,618713 L 596,856407 756,451251 M 606,856407 363,618713 L 606,856407 756,451251 M 616,856407 363,618713 L 616,856407 756,451251 M 626,856407 363,618713 L 626,856407 756,451251 M 636,856407 363,618713 L 636,856407 756,451251 M 646,856407 363,618713 L 646,856407 756,451251 M 656,856407 363,618713 L 656,856407 756,451251 M 666,856407 363,618713 L 666,856407 756,451251 M 676,856407 363,618713 L 676,856407 756,451251 M 686,856407 363,618713 L 686,856407 756,451251 M 696,856407 363,618713 L 696,856407 756,451251 M 706,856407 363,618713 L 706,856407 756,451251 M 716,856407 363,618713 L 716,856407 756,451251 M 726,856407 363,618713 L 726,856407 756,451251 M 736,856407 363,618713 L 736,856407 756,451251 M 746,856407 363,618713 L 746,856407 756,451251 M 756,856407 363,618713 L 756,856407 756,451251 M 766,856407 363,618713 L 766,856407 756,451251 M 776,856407 363,618713 L 776,856407 756,451251 M 786,856407 363,618713 L 786,856407 756,451251 M 796,856407 363,618713 L 796,856407 756,451251 M 806,856407 363,618713 L 806,856407 756,451251 M 81,856407 368,618713 L 807,816200 368,618713 M 81,856407 378,618713 L 807,816200 378,618713 M 81,856407 388,618713 L 807,816200 388,618713 M 81,856407 398,618713 L 807,816200 398,618713 M 81,856407 408,618713 L 807,816200 408,618713 M 81,856407 418,618713 L 807,816200 418,618713 M 81,856407 428,618713 L 807,816200 428,618713 M 81,856407 438,618713 L 807,816200 438,618713 M 81,856407 448,618713 L 807,816200 448,618713 M 81,856407 458,618713 L 807,816200 458,618713 M 81,856407 468,618713 L 807,816200 468,618713 M 81,856407 478,618713 L 807,816200 478,618713 M 81,856407 488,618713 L 807,816200 488,618713 M 81,856407 498,618713 L 807,816200 498,618713 M 81,856407 508,618713 L 807,816200 508,618713 M 81,856407 518,618713 L 807,816200 518,618713 M 81,856407 528,618713 L 807,816200 528,618713 M 81,856407 538,618713 L 807,816200 538,618713 M 81,856407 548,618713 L 807,816200 548,618713 M 81,856407 558,618713 L 807,816200 558,618713 M 81,856407 568,618713 L 807,816200 568,618713 M 81,856407 578,618713 L 807,816200 578,618713 M 81,856407 588,618713 L 807,816200 588,618713 M 81,856407 598,618713 L 807,816200 598,618713 M 81,856407 608,618713 L 807,816200 608,618713 M 81,856407 618,618713 L 807,816200 618,618713 M 81,856407 628,618713 L 807,816200 628,618713 M 81,856407 638,618713 L 807,816200 638,618713 M 81,856407 648,618713 L 807,816200 648,618713 M 81,856407 658,618713 L 807,816200 658,618713 M 81,856407 668,618713 L 807,816200 668,618713 M 81,856407 678,618713 L 807,816200 678,618713 M 81,856407 688,618713 L 807,816200 688,618713 M 81,856407 698,618713 L 807,816200 698,618713 M 81,856407 708,618713 L 807,816200 708,618713 M 81,856407 718,618713 L 807,816200 718,618713 M 81,856407 728,618713 L 807,816200 728,618713 M 81,856407 738,618713 L 807,816200 738,618713 M 81,856407 748,618713 L 807,816200 748,618713 "
       id="path4201" />
    <path
       sodipodi:nodetypes="czscc"
       inkscape:export-ydpi="759.65997"
       inkscape:export-filename="D:\Desktop\block.png"
       d="M 115.47542,492.18167 C 115.47542,492.18167 581.4884,492.18167 588.36951,492.18167 C 588.36951,492.18167 588.37098,630.11325 588.37098,630.11325 C 588.37098,630.11325 115.47933,630.1153 115.47933,630.1153 L 115.47542,492.18167 z "
       inkscape:export-xdpi="759.65997"
       id="path1393"
       style="fill:#e6e6ff;fill-opacity:1;fill-rule:evenodd;stroke:#8080b4;stroke-width:1px;stroke-linecap:butt;stroke-linejoin:miter;stroke-opacity:1" />
    <text
       xml:space="preserve"
       x="248.22083"
       inkscape:export-ydpi="759.65997"
       inkscape:export-filename="D:\Desktop\block.png"
       y="543.94421"
       inkscape:export-xdpi="759.65997"
       sodipodi:linespacing="125%"
       id="text1395"
       style="font-size:28.96531677px;font-style:normal;font-variant:normal;font-weight:normal;font-stretch:normal;text-align:start;line-height:125%;writing-mode:lr-tb;text-anchor:start;fill:#000000;fill-opacity:1;stroke:none;stroke-width:1;stroke-linecap:butt;stroke-linejoin:round;stroke-miterlimit:4;stroke-dasharray:none;stroke-opacity:1;font-family:Arial"><tspan
         x="248.22083"
         sodipodi:role="line"
         y="543.94421"
         id="tspan1397"
         style="font-size:38.62042236px;font-style:normal;font-variant:normal;font-weight:bold;font-stretch:normal;text-align:start;line-height:100%;writing-mode:lr-tb;text-anchor:start;stroke:none;stroke-width:1;stroke-linejoin:round;stroke-miterlimit:4;stroke-dasharray:none;stroke-opacity:1;font-family:Tahoma">Code::Blocks</tspan><tspan
         x="248.22083"
         sodipodi:role="line"
         y="582.56464"
         id="tspan1399"
         style="font-size:12px;font-style:italic;font-variant:normal;font-weight:normal;font-stretch:normal;text-align:start;line-height:125%;writing-mode:lr-tb;text-anchor:start;stroke:none;stroke-width:1;stroke-linejoin:round;stroke-miterlimit:4;stroke-dasharray:none;stroke-opacity:1;font-family:Arial" /></text>
    <g
       inkscape:export-ydpi="759.65997"
       inkscape:export-filename="D:\Desktop\block.png"
       transform="translate(-19.66398,90.04334)"
       inkscape:export-xdpi="759.65997"
       id="g1401"
       style="opacity:1;fill:url(#linearGradient1506);fill-opacity:1;stroke:none;stroke-opacity:1">
      <rect
         height="19.05851"
         x="135.70335"
         y="402.28992"
         width="471.8324"
         id="rect1403"
         style="opacity:0.9;fill:url(#linearGradient1508);fill-opacity:1;fill-rule:nonzero;stroke:none;stroke-width:0.09999998;stroke-linecap:round;stroke-linejoin:round;stroke-miterlimit:4;stroke-dasharray:none;stroke-dashoffset:0;stroke-opacity:1" />
    </g>
    <text
       xml:space="preserve"
       x="373.01559"
       inkscape:export-ydpi="759.65997"
       inkscape:export-filename="D:\Desktop\block.png"
       y="549.35474"
       inkscape:export-xdpi="759.65997"
       sodipodi:linespacing="125%"
       id="text1415"
       style="font-size:13.37703609px;font-style:italic;font-variant:normal;font-weight:normal;font-stretch:normal;text-align:start;line-height:125%;writing-mode:lr-tb;text-anchor:start;opacity:1;fill:#000000;fill-opacity:1;stroke:none;stroke-width:1px;stroke-linecap:butt;stroke-linejoin:miter;stroke-opacity:1;font-family:Times New Roman"><tspan
         x="373.01559"
         sodipodi:role="line"
         y="549.35474"
         id="tspan1417"
         style="font-size:13.37703609px;font-style:italic;font-variant:normal;font-weight:normal;font-stretch:normal;text-align:start;line-height:125%;writing-mode:lr-tb;text-anchor:start;font-family:Times New Roman;fill:#000000;fill-opacity:1;stroke:none;stroke-opacity:1"> </tspan><tspan
         x="373.0156"
         sodipodi:role="line"
         y="569.31556"
         id="tspan1423"
         style="font-size:16.72129059px;font-style:italic;font-variant:normal;font-weight:normal;font-stretch:normal;text-align:center;line-height:125%;writing-mode:lr-tb;text-anchor:middle;font-family:Times New Roman;fill:#000000;fill-opacity:1;stroke:none;stroke-opacity:1">The open source, cross-platform IDE</tspan></text>
    <path
       style="fill:url(#linearGradient2278);fill-opacity:1;fill-rule:evenodd;stroke:none;stroke-width:1.19999993;stroke-linecap:round;stroke-linejoin:round;stroke-miterlimit:4;stroke-dasharray:none;stroke-opacity:1"
       d="M 99.314143,280.60957 C 144.54724,346.9021 273.59872,342.46481 348.32695,333.55161 C 348.43514,333.53867 240.31386,270.88677 219.56172,257.55941 C 217.13745,256.0025 103.48615,244.40284 100.25135,278.66152"
       id="path1434"
       sodipodi:nodetypes="csss"
       inkscape:export-filename="D:\Desktop\curve.png"
       inkscape:export-xdpi="576.32001"
       inkscape:export-ydpi="576.32001" />
    <path
       id="path1436"
       d="M 224.57642,261.69407 C 240.51757,279.26187 339.57182,355.50347 442.35302,345.97705 C 457.60091,344.55175 471.59543,342.79821 484.67028,340.73707 C 550.71944,330.32498 593.29974,312.06307 655.42913,288.60931"
       style="fill:none;fill-opacity:1;fill-rule:evenodd;stroke:#410ea1;stroke-width:1.19999993;stroke-linecap:round;stroke-linejoin:round;stroke-miterlimit:4;stroke-dasharray:none;stroke-opacity:1"
       inkscape:export-filename="D:\Desktop\curve.png"
       inkscape:export-xdpi="576.32001"
       inkscape:export-ydpi="576.32001" />
    <path
       id="path1438"
       d="M 210.63674,263.86074 C 229.98933,287.07062 333.76832,354.76246 439.38514,343.3149 C 455.1259,341.59083 469.71783,339.50673 483.41415,337.09813 C 555.3451,324.16869 599.18883,303.96086 660.89685,280.5335"
       style="fill:none;fill-opacity:1;fill-rule:evenodd;stroke:#4d2093;stroke-width:1.19999993;stroke-linecap:round;stroke-linejoin:round;stroke-miterlimit:4;stroke-dasharray:none;stroke-opacity:1"
       inkscape:export-filename="D:\Desktop\curve.png"
       inkscape:export-xdpi="576.32001"
       inkscape:export-ydpi="576.32001" />
    <path
       id="path1440"
       d="M 196.69706,266.0274 C 219.46109,294.87936 327.96482,354.02145 436.41727,340.65274 C 452.65089,338.62992 467.84023,336.21524 482.15801,333.45919 C 559.97075,318.01241 605.07792,295.85865 666.36456,272.45768"
       style="fill:none;fill-opacity:1;fill-rule:evenodd;stroke:#5a3286;stroke-width:1.19999993;stroke-linecap:round;stroke-linejoin:round;stroke-miterlimit:4;stroke-dasharray:none;stroke-opacity:1"
       inkscape:export-filename="D:\Desktop\curve.png"
       inkscape:export-xdpi="576.32001"
       inkscape:export-ydpi="576.32001" />
    <path
       id="path1442"
       d="M 182.75738,268.19407 C 208.93285,302.68811 322.16132,353.28045 433.44939,337.99059 C 450.17588,335.669 465.96263,332.92375 480.90188,329.82026 C 564.59641,311.85612 610.96701,287.75645 671.83228,264.38187"
       style="fill:none;fill-opacity:1;fill-rule:evenodd;stroke:#664479;stroke-width:1.19999993;stroke-linecap:round;stroke-linejoin:round;stroke-miterlimit:4;stroke-dasharray:none;stroke-opacity:1"
       inkscape:export-filename="D:\Desktop\curve.png"
       inkscape:export-xdpi="576.32001"
       inkscape:export-ydpi="576.32001" />
    <path
       id="path1444"
       d="M 159.6605,261.78803 C 200.15812,313.22453 316.35782,352.53944 430.48151,335.32843 C 447.70087,332.70809 464.08503,329.63226 479.64575,326.18132 C 569.22207,305.69983 616.8561,279.65424 677.29999,256.30606"
       style="fill:none;fill-opacity:1;fill-rule:evenodd;stroke:#73566c;stroke-width:1.19999993;stroke-linecap:round;stroke-linejoin:round;stroke-miterlimit:4;stroke-dasharray:none;stroke-opacity:1"
       sodipodi:nodetypes="cccc"
       inkscape:export-filename="D:\Desktop\curve.png"
       inkscape:export-xdpi="576.32001"
       inkscape:export-ydpi="576.32001" />
    <path
       id="path1446"
       d="M 154.09869,271.55323 C 187.09703,317.33143 310.55432,351.79843 427.51364,332.66628 C 445.22585,329.74718 462.20743,326.34077 478.38961,322.54238 C 573.84773,299.54355 622.74519,271.55203 682.76771,248.23024"
       style="fill:none;fill-opacity:1;fill-rule:evenodd;stroke:#7f695e;stroke-width:1.19999993;stroke-linecap:round;stroke-linejoin:round;stroke-miterlimit:4;stroke-dasharray:none;stroke-opacity:1"
       sodipodi:nodetypes="cccc"
       inkscape:export-filename="D:\Desktop\curve.png"
       inkscape:export-xdpi="576.32001"
       inkscape:export-ydpi="576.32001" />
    <path
       id="path1448"
       d="M 140.93835,274.69407 C 177.34813,326.11435 304.75082,351.05742 424.54576,330.00412 C 442.75084,326.78626 460.32983,323.04928 477.13348,318.90344 C 578.47339,293.38726 628.63428,263.44982 688.23542,240.15443"
       style="fill:none;fill-opacity:1;fill-rule:evenodd;stroke:#8c7b51;stroke-width:1.19999993;stroke-linecap:round;stroke-linejoin:round;stroke-miterlimit:4;stroke-dasharray:none;stroke-opacity:1"
       inkscape:export-filename="D:\Desktop\curve.png"
       inkscape:export-xdpi="576.32001"
       inkscape:export-ydpi="576.32001" />
    <path
       id="path1450"
       d="M 126.99867,276.86074 C 166.81989,333.92309 298.94732,350.31641 421.57789,327.34197 C 440.27583,323.82535 458.45224,319.75779 475.87735,315.2645 C 583.09904,287.23097 634.52337,255.34762 693.70314,232.07862"
       style="fill:none;fill-opacity:1;fill-rule:evenodd;stroke:#988d44;stroke-width:1.19999993;stroke-linecap:round;stroke-linejoin:round;stroke-miterlimit:4;stroke-dasharray:none;stroke-opacity:1"
       inkscape:export-filename="D:\Desktop\curve.png"
       inkscape:export-xdpi="576.32001"
       inkscape:export-ydpi="576.32001" />
    <path
       id="path1452"
       d="M 113.05899,279.0274 C 156.29165,341.73184 293.14381,349.57541 418.61001,324.67982 C 437.80082,320.86443 456.57464,316.46631 474.62121,311.62556 C 587.7247,281.07469 640.41246,247.24541 699.17085,224.0028"
       style="fill:none;fill-opacity:1;fill-rule:evenodd;stroke:#a59f37;stroke-width:1.19999993;stroke-linecap:round;stroke-linejoin:round;stroke-miterlimit:4;stroke-dasharray:none;stroke-opacity:1"
       inkscape:export-filename="D:\Desktop\curve.png"
       inkscape:export-xdpi="576.32001"
       inkscape:export-ydpi="576.32001" />
    <path
       id="path1454"
       d="M 99.119313,281.19407 C 145.76341,349.54058 287.34031,348.8344 415.64213,322.01766 C 435.32581,317.90352 454.69704,313.17482 473.36508,307.98662 C 592.35036,274.9184 646.30155,239.1432 704.63857,215.92699"
       style="fill:none;fill-opacity:1;fill-rule:evenodd;stroke:#b2b22a;stroke-width:1.19999993;stroke-linecap:round;stroke-linejoin:round;stroke-miterlimit:4;stroke-dasharray:none;stroke-opacity:1"
       inkscape:export-filename="D:\Desktop\curve.png"
       inkscape:export-xdpi="576.32001"
       inkscape:export-ydpi="576.32001" />
    <path
       sodipodi:nodetypes="csscscscc"
       inkscape:export-ydpi="576.32001"
       inkscape:export-filename="D:\Desktop\curve.png"
       d="M 176.87333,160.41169 C 176.87333,160.41169 570.87333,160.41169 578.87333,160.41169 C 584.63555,160.41169 588.37333,163.78159 588.37333,169.91169 C 588.37333,177.91169 588.37333,181.41169 588.37333,181.41169 C 588.37333,181.41169 588.37313,268.63234 588.37313,268.63234 C 499.22661,302.7175 449.87333,318.78579 347.78996,333.55657 C 273.8981,307.57382 249.96997,281.73684 209.41853,251.62904 C 181.27949,230.73694 165.87333,233.91169 165.87333,233.91169 L 176.87333,160.41169 z "
       inkscape:export-xdpi="576.32001"
       id="path1456"
       style="fill:#e6e6ff;fill-opacity:1;fill-rule:evenodd;stroke:url(#linearGradient1518);stroke-width:1px;stroke-linecap:butt;stroke-linejoin:miter;stroke-opacity:1" />
    <text
       xml:space="preserve"
       x="251.92998"
       inkscape:export-ydpi="576.32001"
       inkscape:export-filename="D:\Desktop\curve.png"
       y="212.51486"
       inkscape:export-xdpi="576.32001"
       sodipodi:linespacing="125%"
       id="text1458"
       style="font-size:28.96531677px;font-style:normal;font-variant:normal;font-weight:normal;font-stretch:normal;text-align:start;line-height:125%;writing-mode:lr-tb;text-anchor:start;fill:#000000;fill-opacity:1;stroke:none;stroke-width:1;stroke-linecap:butt;stroke-linejoin:round;stroke-miterlimit:4;stroke-dasharray:none;stroke-opacity:1;font-family:Arial"><tspan
         sodipodi:role="line"
         x="251.92998"
         y="212.51486"
         id="tspan1460"
         style="font-size:38.62042236px;font-style:normal;font-variant:normal;font-weight:bold;font-stretch:normal;text-align:start;line-height:100%;writing-mode:lr-tb;text-anchor:start;stroke:none;stroke-width:1;stroke-linejoin:round;stroke-miterlimit:4;stroke-dasharray:none;stroke-opacity:1;font-family:Tahoma">Code::Blocks</tspan><tspan
         sodipodi:role="line"
         x="251.92998"
         y="251.13528"
         id="tspan1462"
         style="font-size:12px;font-style:italic;font-variant:normal;font-weight:normal;font-stretch:normal;text-align:start;line-height:125%;writing-mode:lr-tb;text-anchor:start;stroke:none;stroke-width:1;stroke-linejoin:round;stroke-miterlimit:4;stroke-dasharray:none;stroke-opacity:1;font-family:Arial" /></text>
    <g
       inkscape:export-ydpi="576.32001"
       inkscape:export-filename="D:\Desktop\curve.png"
       transform="translate(-20.64105,-241.7296)"
       inkscape:export-xdpi="576.32001"
       id="g1464"
       style="opacity:1;fill:url(#linearGradient1520);fill-opacity:1;stroke:none;stroke-opacity:1">
      <rect
         height="19.058449"
         x="236.28859"
         y="402.28992"
         ry="8.1150103"
         rx="9.8994951"
         width="372.12289"
         id="rect1466"
         style="opacity:0.9;fill:url(#linearGradient1522);fill-opacity:1;fill-rule:nonzero;stroke:none;stroke-width:0.09999998;stroke-linecap:round;stroke-linejoin:round;stroke-miterlimit:4;stroke-dasharray:none;stroke-dashoffset:0;stroke-opacity:1" />
    </g>
    <text
       xml:space="preserve"
       x="376.74878"
       inkscape:export-ydpi="576.32001"
       inkscape:export-filename="D:\Desktop\curve.png"
       y="242.91881"
       inkscape:export-xdpi="576.32001"
       sodipodi:linespacing="125%"
       id="text1468"
       style="font-size:13.37703609px;font-style:italic;font-variant:normal;font-weight:normal;font-stretch:normal;text-align:start;line-height:125%;writing-mode:lr-tb;text-anchor:start;opacity:1;fill:#000000;fill-opacity:1;stroke:none;stroke-width:1px;stroke-linecap:butt;stroke-linejoin:miter;stroke-opacity:1;font-family:Times New Roman"><tspan
         sodipodi:role="line"
         x="376.74878"
         y="242.91881"
         id="tspan1470"
         style="font-size:13.37703609px;font-style:italic;font-variant:normal;font-weight:normal;font-stretch:normal;text-align:start;line-height:125%;writing-mode:lr-tb;text-anchor:start;fill:#000000;fill-opacity:1;font-family:Times New Roman"> </tspan><tspan
         sodipodi:role="line"
         x="376.74878"
         y="262.87963"
         id="tspan1472"
         style="font-size:16.72129059px;font-style:italic;font-variant:normal;font-weight:normal;font-stretch:normal;text-align:center;line-height:125%;writing-mode:lr-tb;text-anchor:middle;fill:#000000;fill-opacity:1;font-family:Times New Roman">The open source, cross-platform IDE</tspan><tspan
         sodipodi:role="line"
         x="377.49878"
         y="273.3957"
         id="tspan1476"
         style="font-size:6px;font-style:italic;font-variant:normal;font-weight:normal;font-stretch:normal;text-align:center;line-height:125%;writing-mode:lr-tb;text-anchor:middle;fill:#000000;fill-opacity:1;font-family:Times New Roman"> </tspan></text>
    <path
       sodipodi:nodetypes="csc"
       inkscape:export-ydpi="576.32001"
       inkscape:export-filename="D:\Desktop\curve.png"
       d="M 99.119314,281.19398 C 152.91941,360.02601 333.01533,346.99235 473.36508,307.98653 C 592.35036,274.91831 646.30155,239.14311 704.63857,215.9269"
       inkscape:export-xdpi="576.32001"
       id="path1478"
       style="fill:none;fill-opacity:1;fill-rule:evenodd;stroke:#b2b22a;stroke-width:1.19999993;stroke-linecap:round;stroke-linejoin:round;stroke-miterlimit:4;stroke-dasharray:none;stroke-opacity:1" />
    <path
       sodipodi:nodetypes="csc"
       inkscape:export-ydpi="576.32001"
       inkscape:export-filename="D:\Desktop\curve.png"
       d="M 224.57642,261.69398 C 240.51757,279.26178 339.57182,355.50338 442.35302,345.97696 C 534.62742,337.35156 581.00083,316.7058 655.42913,288.60922"
       inkscape:export-xdpi="576.32001"
       id="path1480"
       style="fill:none;fill-opacity:1;fill-rule:evenodd;stroke:#410ea1;stroke-width:1.19999993;stroke-linecap:round;stroke-linejoin:round;stroke-miterlimit:4;stroke-dasharray:none;stroke-opacity:1" />
    <image
       height="162.14282"
       x="80.590363"
       inkscape:export-ydpi="576.32001"
       inkscape:export-filename="D:\Desktop\curve.png"
       y="125.82965"
       sodipodi:absref="D:\Desktop\cb-big.png"
       width="157.80324"
       inkscape:export-xdpi="576.32001"
       xlink:href="cb-big.png"
       id="image1482" />
    <g
       id="g2280"
       inkscape:export-filename="D:\Desktop\curve.png"
       inkscape:export-xdpi="576.32001"
       inkscape:export-ydpi="576.32001">
      <path
         inkscape:export-ydpi="557.59381"
         inkscape:export-xdpi="557.59381"
         inkscape:export-filename="D:\Desktop\splash_new-big.png"
         style="font-size:128.06539917px;font-style:normal;font-variant:normal;font-weight:bold;font-stretch:normal;text-align:start;line-height:100%;writing-mode:lr-tb;text-anchor:start;fill:#6464ff;fill-opacity:1;stroke:#ffffff;stroke-width:2;stroke-linecap:butt;stroke-linejoin:round;stroke-miterlimit:4;stroke-dasharray:none;stroke-opacity:1;font-family:Bookman Old Style"
         d="M 562.12981,175.77263 L 554.4131,244.2451 C 554.07947,247.20496 554.00486,248.9767 554.18927,249.56031 C 554.44695,250.60253 555.02939,251.35291 555.93659,251.81146 C 556.84837,252.22835 558.59662,252.43679 561.18133,252.43678 L 569.99834,252.43678 L 568.63822,264.50545 L 514.73569,264.50545 L 516.09581,252.43678 L 524.97535,252.43678 C 528.10191,252.43679 530.12407,252.2492 531.04183,251.87399 C 531.96422,251.45713 532.68322,250.81097 533.19879,249.9355 C 533.76068,249.01839 534.20373,247.12159 534.52794,244.2451 L 540.03182,195.40766 L 522.52288,195.40766 L 523.89004,183.27646 C 528.94894,182.77629 532.84295,182.25519 535.5721,181.71317 C 539.66336,180.92118 544.03768,179.83729 548.69506,178.46151 C 551.28085,177.71121 553.71639,176.81492 556.00168,175.77263 L 562.12981,175.77263"
         id="path1486" />
      <path
         inkscape:export-ydpi="557.59381"
         inkscape:export-xdpi="557.59381"
         inkscape:export-filename="D:\Desktop\splash_new-big.png"
         style="font-size:128.06539917px;font-style:normal;font-variant:normal;font-weight:bold;font-stretch:normal;text-align:start;line-height:100%;writing-mode:lr-tb;text-anchor:start;fill:url(#radialGradient3477);fill-opacity:1;stroke:none;stroke-width:2;stroke-linecap:butt;stroke-linejoin:round;stroke-miterlimit:4;stroke-dasharray:none;stroke-opacity:1;font-family:Bookman Old Style"
         d="M 562.12981,175.77263 L 554.4131,244.2451 C 554.07947,247.20496 554.00486,248.9767 554.18927,249.56031 C 554.44695,250.60253 555.02939,251.35291 555.93659,251.81146 C 556.84837,252.22835 558.59662,252.43679 561.18133,252.43678 L 569.99834,252.43678 L 568.63822,264.50545 L 514.73569,264.50545 L 516.09581,252.43678 L 524.97535,252.43678 C 528.10191,252.43679 530.12407,252.2492 531.04183,251.87399 C 531.96422,251.45713 532.68322,250.81097 533.19879,249.9355 C 533.76068,249.01839 534.20373,247.12159 534.52794,244.2451 L 540.03182,195.40766 L 522.52288,195.40766 L 523.89004,183.27646 C 528.94894,182.77629 532.84295,182.25519 535.5721,181.71317 C 539.66336,180.92118 544.03768,179.83729 548.69506,178.46151 C 551.28085,177.71121 553.71639,176.81492 556.00168,175.77263 L 562.12981,175.77263"
         id="path1488" />
      <path
         inkscape:export-ydpi="557.59381"
         inkscape:export-xdpi="557.59381"
         inkscape:export-filename="D:\Desktop\splash_new-big.png"
         id="path1490"
         d="M 562.12981,175.77263 L 554.4131,244.2451 C 554.07947,247.20496 554.00486,248.9767 554.18927,249.56031 C 554.44695,250.60253 555.02939,251.35291 555.93659,251.81146 C 556.84837,252.22835 558.59662,252.43679 561.18133,252.43678 L 569.99834,252.43678 L 568.63822,264.50545 L 514.73569,264.50545 L 516.09581,252.43678 L 524.97535,252.43678 C 528.10191,252.43679 530.12407,252.2492 531.04183,251.87399 C 531.96422,251.45713 532.68322,250.81097 533.19879,249.9355 C 533.76068,249.01839 534.20373,247.12159 534.52794,244.2451 L 540.03182,195.40766 L 522.52288,195.40766 L 523.89004,183.27646 C 528.94894,182.77629 532.84295,182.25519 535.5721,181.71317 C 539.66336,180.92118 544.03768,179.83729 548.69506,178.46151 C 551.28085,177.71121 553.71639,176.81492 556.00168,175.77263 L 562.12981,175.77263"
         style="font-size:128.06539917px;font-style:normal;font-variant:normal;font-weight:bold;font-stretch:normal;text-align:start;line-height:100%;writing-mode:lr-tb;text-anchor:start;fill:url(#radialGradient3474);fill-opacity:1;stroke:none;stroke-width:2;stroke-linecap:butt;stroke-linejoin:round;stroke-miterlimit:4;stroke-dasharray:none;stroke-opacity:1;font-family:Bookman Old Style" />
      <path
         inkscape:export-ydpi="557.59381"
         inkscape:export-xdpi="557.59381"
         inkscape:export-filename="D:\Desktop\splash_new-big.png"
         style="font-size:128.06539917px;font-style:normal;font-variant:normal;font-weight:bold;font-stretch:normal;text-align:start;line-height:100%;writing-mode:lr-tb;text-anchor:start;fill:url(#radialGradient3471);fill-opacity:1;stroke:none;stroke-width:2;stroke-linecap:butt;stroke-linejoin:round;stroke-miterlimit:4;stroke-dasharray:none;stroke-opacity:1;font-family:Bookman Old Style"
         d="M 562.12981,175.77263 L 554.4131,244.2451 C 554.07947,247.20496 554.00486,248.9767 554.18927,249.56031 C 554.44695,250.60253 555.02939,251.35291 555.93659,251.81146 C 556.84837,252.22835 558.59662,252.43679 561.18133,252.43678 L 569.99834,252.43678 L 568.63822,264.50545 L 514.73569,264.50545 L 516.09581,252.43678 L 524.97535,252.43678 C 528.10191,252.43679 530.12407,252.2492 531.04183,251.87399 C 531.96422,251.45713 532.68322,250.81097 533.19879,249.9355 C 533.76068,249.01839 534.20373,247.12159 534.52794,244.2451 L 540.03182,195.40766 L 522.52288,195.40766 L 523.89004,183.27646 C 528.94894,182.77629 532.84295,182.25519 535.5721,181.71317 C 539.66336,180.92118 544.03768,179.83729 548.69506,178.46151 C 551.28085,177.71121 553.71639,176.81492 556.00168,175.77263 L 562.12981,175.77263"
         id="path1492" />
    </g>
    <text
       style="font-size:15px;font-style:italic;font-variant:normal;font-weight:normal;font-stretch:normal;text-align:center;line-height:125%;writing-mode:lr-tb;text-anchor:middle;opacity:1;fill:#000000;fill-opacity:1;stroke:none;stroke-width:1px;stroke-linecap:butt;stroke-linejoin:miter;stroke-opacity:1;font-family:Times New Roman"
       id="text1457"
       sodipodi:linespacing="125%"
       inkscape:export-xdpi="576.32001"
       y="291.63254"
       inkscape:export-filename="D:\Desktop\curve.png"
       inkscape:export-ydpi="576.32001"
       x="377.26199"
       xml:space="preserve"><tspan
         style="font-size:15px;font-style:italic;font-variant:normal;font-weight:normal;font-stretch:normal;text-align:center;line-height:125%;writing-mode:lr-tb;text-anchor:middle;fill:#000000;fill-opacity:1;font-family:Times New Roman"
         y="291.63254"
         x="377.26199"
         sodipodi:role="line"
         id="tspan2347">http://www.codeblocks.org</tspan></text>
    <text
       xml:space="preserve"
       x="298.06006"
       inkscape:export-ydpi="759.65997"
       inkscape:export-filename="D:\Desktop\block.png"
       y="591.33069"
       inkscape:export-xdpi="759.65997"
       sodipodi:linespacing="125%"
       id="text2343"
       style="font-size:14px;font-style:italic;font-variant:normal;font-weight:normal;font-stretch:normal;text-align:start;line-height:125%;writing-mode:lr-tb;text-anchor:start;opacity:1;fill:#000000;fill-opacity:1;stroke:none;stroke-width:1px;stroke-linecap:butt;stroke-linejoin:miter;stroke-opacity:1;font-family:Times New Roman"><tspan
         sodipodi:role="line"
         x="298.06006"
         y="591.33069"
         id="tspan2345"
         style="font-size:14px;font-style:italic;font-variant:normal;font-weight:normal;font-stretch:normal;text-align:start;line-height:125%;writing-mode:lr-tb;text-anchor:start;fill:#000000;fill-opacity:1;font-family:Times New Roman">http://www.codeblocks.org</tspan></text>
    <path
       sodipodi:nodetypes="cc"
       inkscape:export-ydpi="759.65997"
       inkscape:export-filename="D:\Desktop\block.png"
       d="M 141.81571,593.56726 C 161.94914,652.89931 450.16462,609.34972 508.50164,586.13351"
       inkscape:export-xdpi="759.65997"
       id="path1425"
       style="fill:none;fill-opacity:1;fill-rule:evenodd;stroke:#dfdf42;stroke-width:0.89999998;stroke-linecap:round;stroke-linejoin:round;stroke-miterlimit:4;stroke-dasharray:none;stroke-opacity:1" />
    <path
       sodipodi:nodetypes="cs"
       inkscape:export-ydpi="759.65997"
       inkscape:export-filename="D:\Desktop\block.png"
       d="M 211.39177,585.0072 C 244.83292,622.40831 360.2205,637.64991 476.16837,609.62351"
       inkscape:export-xdpi="759.65997"
       id="path1427"
       style="fill:none;fill-opacity:1;fill-rule:evenodd;stroke:#410ea1;stroke-width:0.89999998;stroke-linecap:round;stroke-linejoin:round;stroke-miterlimit:4;stroke-dasharray:none;stroke-opacity:1" />
    <path
       id="path1504"
       d="M 151.75515,592.34439 C 173.78968,648.54341 437.31546,613.39261 503.8826,589.48922"
       style="fill:none;fill-opacity:1;fill-rule:evenodd;stroke:#c8c14f;stroke-width:0.89999998;stroke-linecap:round;stroke-linejoin:round;stroke-miterlimit:4;stroke-dasharray:none;stroke-opacity:1"
       inkscape:export-filename="D:\Desktop\block.png"
       inkscape:export-xdpi="759.65997"
       inkscape:export-ydpi="759.65997" />
    <path
       id="path1391"
       d="M 211.39177,585.0072 C 244.83292,622.40831 360.2205,637.64991 476.16837,609.62351"
       style="fill:none;fill-opacity:1;fill-rule:evenodd;stroke:#410ea1;stroke-width:0.89999998;stroke-linecap:round;stroke-linejoin:round;stroke-miterlimit:4;stroke-dasharray:none;stroke-opacity:1"
       inkscape:export-filename="D:\Desktop\block.png"
       inkscape:export-xdpi="759.65997"
       inkscape:export-ydpi="759.65997" />
    <path
       id="path1494"
       d="M 201.45233,586.23007 C 232.99238,626.76421 373.06966,633.60701 480.78741,606.2678"
       style="fill:none;fill-opacity:1;fill-rule:evenodd;stroke:#572b93;stroke-width:0.89999998;stroke-linecap:round;stroke-linejoin:round;stroke-miterlimit:4;stroke-dasharray:none;stroke-opacity:1"
       inkscape:export-filename="D:\Desktop\block.png"
       inkscape:export-xdpi="759.65997"
       inkscape:export-ydpi="759.65997" />
    <path
       id="path1496"
       d="M 191.5129,587.45293 C 221.15184,631.12001 385.91882,629.56411 485.40645,602.91208"
       style="fill:none;fill-opacity:1;fill-rule:evenodd;stroke:#6e4985;stroke-width:0.89999998;stroke-linecap:round;stroke-linejoin:round;stroke-miterlimit:4;stroke-dasharray:none;stroke-opacity:1"
       inkscape:export-filename="D:\Desktop\block.png"
       inkscape:export-xdpi="759.65997"
       inkscape:export-ydpi="759.65997" />
    <path
       id="path1498"
       d="M 181.57346,588.6758 C 209.3113,635.47591 398.76798,625.52131 490.02549,599.55637"
       style="fill:none;fill-opacity:1;fill-rule:evenodd;stroke:#846778;stroke-width:0.89999998;stroke-linecap:round;stroke-linejoin:round;stroke-miterlimit:4;stroke-dasharray:none;stroke-opacity:1"
       inkscape:export-filename="D:\Desktop\block.png"
       inkscape:export-xdpi="759.65997"
       inkscape:export-ydpi="759.65997" />
    <path
       id="path1500"
       d="M 171.63402,589.89866 C 197.47076,639.83171 411.61714,621.47841 494.64452,596.20065"
       style="fill:none;fill-opacity:1;fill-rule:evenodd;stroke:#9b856a;stroke-width:0.89999998;stroke-linecap:round;stroke-linejoin:round;stroke-miterlimit:4;stroke-dasharray:none;stroke-opacity:1"
       inkscape:export-filename="D:\Desktop\block.png"
       inkscape:export-xdpi="759.65997"
       inkscape:export-ydpi="759.65997" />
    <path
       id="path1502"
       d="M 161.69458,591.12153 C 185.63022,644.18761 424.4663,617.43551 499.26356,592.84494"
       style="fill:none;fill-opacity:1;fill-rule:evenodd;stroke:#b1a35d;stroke-width:0.89999998;stroke-linecap:round;stroke-linejoin:round;stroke-miterlimit:4;stroke-dasharray:none;stroke-opacity:1"
       inkscape:export-filename="D:\Desktop\block.png"
       inkscape:export-xdpi="759.65997"
       inkscape:export-ydpi="759.65997" />
    <image
       height="93.654999"
       x="130.67583"
       xlink:href="cb-big.png"
       y="508.80643"
       sodipodi:absref="D:\Desktop\cb-big.png"
       width="91.148422"
       id="image1429"
       style="opacity:1"
       inkscape:export-filename="D:\Desktop\block.png"
       inkscape:export-xdpi="759.65997"
       inkscape:export-ydpi="759.65997" />
    <g
       id="g2286"
       transform="translate(2.721233,331.9277)"
       inkscape:export-filename="D:\Desktop\block.png"
       inkscape:export-xdpi="759.65997"
       inkscape:export-ydpi="759.65997">
      <path
         id="path2288"
         d="M 562.12981,175.77263 L 554.4131,244.2451 C 554.07947,247.20496 554.00486,248.9767 554.18927,249.56031 C 554.44695,250.60253 555.02939,251.35291 555.93659,251.81146 C 556.84837,252.22835 558.59662,252.43679 561.18133,252.43678 L 569.99834,252.43678 L 568.63822,264.50545 L 514.73569,264.50545 L 516.09581,252.43678 L 524.97535,252.43678 C 528.10191,252.43679 530.12407,252.2492 531.04183,251.87399 C 531.96422,251.45713 532.68322,250.81097 533.19879,249.9355 C 533.76068,249.01839 534.20373,247.12159 534.52794,244.2451 L 540.03182,195.40766 L 522.52288,195.40766 L 523.89004,183.27646 C 528.94894,182.77629 532.84295,182.25519 535.5721,181.71317 C 539.66336,180.92118 544.03768,179.83729 548.69506,178.46151 C 551.28085,177.71121 553.71639,176.81492 556.00168,175.77263 L 562.12981,175.77263"
         style="font-size:128.06539917px;font-style:normal;font-variant:normal;font-weight:bold;font-stretch:normal;text-align:start;line-height:100%;writing-mode:lr-tb;text-anchor:start;fill:#6464ff;fill-opacity:1;stroke:#ffffff;stroke-width:2;stroke-linecap:butt;stroke-linejoin:round;stroke-miterlimit:4;stroke-dasharray:none;stroke-opacity:1;font-family:Bookman Old Style"
         inkscape:export-filename="D:\Desktop\splash_new-big.png"
         inkscape:export-xdpi="557.59381"
         inkscape:export-ydpi="557.59381" />
      <path
         id="path2290"
         d="M 562.12981,175.77263 L 554.4131,244.2451 C 554.07947,247.20496 554.00486,248.9767 554.18927,249.56031 C 554.44695,250.60253 555.02939,251.35291 555.93659,251.81146 C 556.84837,252.22835 558.59662,252.43679 561.18133,252.43678 L 569.99834,252.43678 L 568.63822,264.50545 L 514.73569,264.50545 L 516.09581,252.43678 L 524.97535,252.43678 C 528.10191,252.43679 530.12407,252.2492 531.04183,251.87399 C 531.96422,251.45713 532.68322,250.81097 533.19879,249.9355 C 533.76068,249.01839 534.20373,247.12159 534.52794,244.2451 L 540.03182,195.40766 L 522.52288,195.40766 L 523.89004,183.27646 C 528.94894,182.77629 532.84295,182.25519 535.5721,181.71317 C 539.66336,180.92118 544.03768,179.83729 548.69506,178.46151 C 551.28085,177.71121 553.71639,176.81492 556.00168,175.77263 L 562.12981,175.77263"
         style="font-size:128.06539917px;font-style:normal;font-variant:normal;font-weight:bold;font-stretch:normal;text-align:start;line-height:100%;writing-mode:lr-tb;text-anchor:start;fill:url(#radialGradient2296);fill-opacity:1;stroke:none;stroke-width:2;stroke-linecap:butt;stroke-linejoin:round;stroke-miterlimit:4;stroke-dasharray:none;stroke-opacity:1;font-family:Bookman Old Style"
         inkscape:export-filename="D:\Desktop\splash_new-big.png"
         inkscape:export-xdpi="557.59381"
         inkscape:export-ydpi="557.59381" />
      <path
         style="font-size:128.06539917px;font-style:normal;font-variant:normal;font-weight:bold;font-stretch:normal;text-align:start;line-height:100%;writing-mode:lr-tb;text-anchor:start;fill:url(#radialGradient2298);fill-opacity:1;stroke:none;stroke-width:2;stroke-linecap:butt;stroke-linejoin:round;stroke-miterlimit:4;stroke-dasharray:none;stroke-opacity:1;font-family:Bookman Old Style"
         d="M 562.12981,175.77263 L 554.4131,244.2451 C 554.07947,247.20496 554.00486,248.9767 554.18927,249.56031 C 554.44695,250.60253 555.02939,251.35291 555.93659,251.81146 C 556.84837,252.22835 558.59662,252.43679 561.18133,252.43678 L 569.99834,252.43678 L 568.63822,264.50545 L 514.73569,264.50545 L 516.09581,252.43678 L 524.97535,252.43678 C 528.10191,252.43679 530.12407,252.2492 531.04183,251.87399 C 531.96422,251.45713 532.68322,250.81097 533.19879,249.9355 C 533.76068,249.01839 534.20373,247.12159 534.52794,244.2451 L 540.03182,195.40766 L 522.52288,195.40766 L 523.89004,183.27646 C 528.94894,182.77629 532.84295,182.25519 535.5721,181.71317 C 539.66336,180.92118 544.03768,179.83729 548.69506,178.46151 C 551.28085,177.71121 553.71639,176.81492 556.00168,175.77263 L 562.12981,175.77263"
         id="path2292"
         inkscape:export-filename="D:\Desktop\splash_new-big.png"
         inkscape:export-xdpi="557.59381"
         inkscape:export-ydpi="557.59381" />
      <path
         id="path2294"
         d="M 562.12981,175.77263 L 554.4131,244.2451 C 554.07947,247.20496 554.00486,248.9767 554.18927,249.56031 C 554.44695,250.60253 555.02939,251.35291 555.93659,251.81146 C 556.84837,252.22835 558.59662,252.43679 561.18133,252.43678 L 569.99834,252.43678 L 568.63822,264.50545 L 514.73569,264.50545 L 516.09581,252.43678 L 524.97535,252.43678 C 528.10191,252.43679 530.12407,252.2492 531.04183,251.87399 C 531.96422,251.45713 532.68322,250.81097 533.19879,249.9355 C 533.76068,249.01839 534.20373,247.12159 534.52794,244.2451 L 540.03182,195.40766 L 522.52288,195.40766 L 523.89004,183.27646 C 528.94894,182.77629 532.84295,182.25519 535.5721,181.71317 C 539.66336,180.92118 544.03768,179.83729 548.69506,178.46151 C 551.28085,177.71121 553.71639,176.81492 556.00168,175.77263 L 562.12981,175.77263"
         style="font-size:128.06539917px;font-style:normal;font-variant:normal;font-weight:bold;font-stretch:normal;text-align:start;line-height:100%;writing-mode:lr-tb;text-anchor:start;fill:url(#radialGradient2300);fill-opacity:1;stroke:none;stroke-width:2;stroke-linecap:butt;stroke-linejoin:round;stroke-miterlimit:4;stroke-dasharray:none;stroke-opacity:1;font-family:Bookman Old Style"
         inkscape:export-filename="D:\Desktop\splash_new-big.png"
         inkscape:export-xdpi="557.59381"
         inkscape:export-ydpi="557.59381" />
    </g>
  </g>
</svg>
