<?xml version="1.0" encoding="UTF-8" standalone="no"?>
<!-- Created with Inkscape (http://www.inkscape.org/) -->
<svg
   xmlns:dc="http://purl.org/dc/elements/1.1/"
   xmlns:cc="http://web.resource.org/cc/"
   xmlns:rdf="http://www.w3.org/1999/02/22-rdf-syntax-ns#"
   xmlns:svg="http://www.w3.org/2000/svg"
   xmlns="http://www.w3.org/2000/svg"
   xmlns:xlink="http://www.w3.org/1999/xlink"
   xmlns:sodipodi="http://sodipodi.sourceforge.net/DTD/sodipodi-0.dtd"
   xmlns:inkscape="http://www.inkscape.org/namespaces/inkscape"
   width="210mm"
   height="297mm"
   id="svg2"
   sodipodi:version="0.32"
   inkscape:version="0.44"
   sodipodi:docbase="D:\Desktop"
   sodipodi:docname="6.12.svg"
   inkscape:export-filename="D:\Desktop\splash_new.png"
   inkscape:export-xdpi="71.956215"
   inkscape:export-ydpi="71.956215">
  <defs
     id="defs4">
    <linearGradient
       id="linearGradient5869">
      <stop
         style="stop-color:white;stop-opacity:1;"
         offset="0"
         id="stop5871" />
      <stop
         style="stop-color:white;stop-opacity:0;"
         offset="1"
         id="stop5873" />
    </linearGradient>
    <linearGradient
       inkscape:collect="always"
       xlink:href="#linearGradient5869"
       id="linearGradient5944"
       gradientUnits="userSpaceOnUse"
       gradientTransform="matrix(0.985899,0,0,0.954602,69.012,-176.9273)"
       x1="255.30273"
       y1="1007.0629"
       x2="255.30273"
       y2="1020.8392" />
    <linearGradient
       inkscape:collect="always"
       xlink:href="#linearGradient5869"
       id="linearGradient5963"
       gradientUnits="userSpaceOnUse"
       gradientTransform="matrix(0.985899,0,0,0.954602,69.012,-176.9273)"
       x1="255.30273"
       y1="1007.0629"
       x2="255.30273"
       y2="1020.8392" />
    <linearGradient
       inkscape:collect="always"
       xlink:href="#linearGradient5869"
       id="linearGradient5971"
       gradientUnits="userSpaceOnUse"
       gradientTransform="matrix(0.985899,0,0,0.954602,69.012,-176.9273)"
       x1="255.30273"
       y1="1007.0629"
       x2="255.30273"
       y2="1020.8392" />
    <linearGradient
       inkscape:collect="always"
       xlink:href="#linearGradient5869"
       id="linearGradient5979"
       gradientUnits="userSpaceOnUse"
       gradientTransform="matrix(0.985899,0,0,0.954602,69.012,-176.9273)"
       x1="255.30273"
       y1="1007.0629"
       x2="255.30273"
       y2="1020.8392" />
    <linearGradient
       inkscape:collect="always"
       xlink:href="#linearGradient5869"
       id="linearGradient6000"
       gradientUnits="userSpaceOnUse"
       gradientTransform="matrix(0.345705,0,0,0.330303,139.788,-74.36182)"
       x1="255.30309"
       y1="1010.4688"
       x2="255.30309"
       y2="1044.2855" />
  </defs>
  <sodipodi:namedview
     id="base"
     pagecolor="#ffffff"
     bordercolor="#666666"
     borderopacity="1.0"
     inkscape:pageopacity="0.0"
     inkscape:pageshadow="2"
     inkscape:zoom="1"
     inkscape:cx="539.0863"
     inkscape:cy="807.28578"
     inkscape:document-units="px"
     inkscape:current-layer="layer1"
     inkscape:window-width="1280"
     inkscape:window-height="924"
     inkscape:window-x="-4"
     inkscape:window-y="-4"
     showguides="true"
     inkscape:guide-bbox="true" />
  <metadata
     id="metadata7">
    <rdf:RDF>
      <cc:Work
         rdf:about="">
        <dc:format>image/svg+xml</dc:format>
        <dc:type
           rdf:resource="http://purl.org/dc/dcmitype/StillImage" />
      </cc:Work>
    </rdf:RDF>
  </metadata>
  <g
     inkscape:label="Ebene 1"
     id="layer1"
     inkscape:groupmode="layer">
    <path
       style="fill:none;fill-opacity:0.75000000;fill-rule:evenodd;stroke:#000000;stroke-linecap:butt;stroke-linejoin:miter;stroke-opacity:1.0000000;stroke-width:1,000000pt"
       d="M 86,856407 363,618713 L 86,856407 756,451251 M 96,856407 363,618713 L 96,856407 756,451251 M 106,856407 363,618713 L 106,856407 756,451251 M 116,856407 363,618713 L 116,856407 756,451251 M 126,856407 363,618713 L 126,856407 756,451251 M 136,856407 363,618713 L 136,856407 756,451251 M 146,856407 363,618713 L 146,856407 756,451251 M 156,856407 363,618713 L 156,856407 756,451251 M 166,856407 363,618713 L 166,856407 756,451251 M 176,856407 363,618713 L 176,856407 756,451251 M 186,856407 363,618713 L 186,856407 756,451251 M 196,856407 363,618713 L 196,856407 756,451251 M 206,856407 363,618713 L 206,856407 756,451251 M 216,856407 363,618713 L 216,856407 756,451251 M 226,856407 363,618713 L 226,856407 756,451251 M 236,856407 363,618713 L 236,856407 756,451251 M 246,856407 363,618713 L 246,856407 756,451251 M 256,856407 363,618713 L 256,856407 756,451251 M 266,856407 363,618713 L 266,856407 756,451251 M 276,856407 363,618713 L 276,856407 756,451251 M 286,856407 363,618713 L 286,856407 756,451251 M 296,856407 363,618713 L 296,856407 756,451251 M 306,856407 363,618713 L 306,856407 756,451251 M 316,856407 363,618713 L 316,856407 756,451251 M 326,856407 363,618713 L 326,856407 756,451251 M 336,856407 363,618713 L 336,856407 756,451251 M 346,856407 363,618713 L 346,856407 756,451251 M 356,856407 363,618713 L 356,856407 756,451251 M 366,856407 363,618713 L 366,856407 756,451251 M 376,856407 363,618713 L 376,856407 756,451251 M 386,856407 363,618713 L 386,856407 756,451251 M 396,856407 363,618713 L 396,856407 756,451251 M 406,856407 363,618713 L 406,856407 756,451251 M 416,856407 363,618713 L 416,856407 756,451251 M 426,856407 363,618713 L 426,856407 756,451251 M 436,856407 363,618713 L 436,856407 756,451251 M 446,856407 363,618713 L 446,856407 756,451251 M 456,856407 363,618713 L 456,856407 756,451251 M 466,856407 363,618713 L 466,856407 756,451251 M 476,856407 363,618713 L 476,856407 756,451251 M 486,856407 363,618713 L 486,856407 756,451251 M 496,856407 363,618713 L 496,856407 756,451251 M 506,856407 363,618713 L 506,856407 756,451251 M 516,856407 363,618713 L 516,856407 756,451251 M 526,856407 363,618713 L 526,856407 756,451251 M 536,856407 363,618713 L 536,856407 756,451251 M 546,856407 363,618713 L 546,856407 756,451251 M 556,856407 363,618713 L 556,856407 756,451251 M 566,856407 363,618713 L 566,856407 756,451251 M 576,856407 363,618713 L 576,856407 756,451251 M 586,856407 363,618713 L 586,856407 756,451251 M 596,856407 363,618713 L 596,856407 756,451251 M 606,856407 363,618713 L 606,856407 756,451251 M 616,856407 363,618713 L 616,856407 756,451251 M 626,856407 363,618713 L 626,856407 756,451251 M 636,856407 363,618713 L 636,856407 756,451251 M 646,856407 363,618713 L 646,856407 756,451251 M 656,856407 363,618713 L 656,856407 756,451251 M 666,856407 363,618713 L 666,856407 756,451251 M 676,856407 363,618713 L 676,856407 756,451251 M 686,856407 363,618713 L 686,856407 756,451251 M 696,856407 363,618713 L 696,856407 756,451251 M 706,856407 363,618713 L 706,856407 756,451251 M 716,856407 363,618713 L 716,856407 756,451251 M 726,856407 363,618713 L 726,856407 756,451251 M 736,856407 363,618713 L 736,856407 756,451251 M 746,856407 363,618713 L 746,856407 756,451251 M 756,856407 363,618713 L 756,856407 756,451251 M 766,856407 363,618713 L 766,856407 756,451251 M 776,856407 363,618713 L 776,856407 756,451251 M 786,856407 363,618713 L 786,856407 756,451251 M 796,856407 363,618713 L 796,856407 756,451251 M 806,856407 363,618713 L 806,856407 756,451251 M 81,856407 368,618713 L 807,816200 368,618713 M 81,856407 378,618713 L 807,816200 378,618713 M 81,856407 388,618713 L 807,816200 388,618713 M 81,856407 398,618713 L 807,816200 398,618713 M 81,856407 408,618713 L 807,816200 408,618713 M 81,856407 418,618713 L 807,816200 418,618713 M 81,856407 428,618713 L 807,816200 428,618713 M 81,856407 438,618713 L 807,816200 438,618713 M 81,856407 448,618713 L 807,816200 448,618713 M 81,856407 458,618713 L 807,816200 458,618713 M 81,856407 468,618713 L 807,816200 468,618713 M 81,856407 478,618713 L 807,816200 478,618713 M 81,856407 488,618713 L 807,816200 488,618713 M 81,856407 498,618713 L 807,816200 498,618713 M 81,856407 508,618713 L 807,816200 508,618713 M 81,856407 518,618713 L 807,816200 518,618713 M 81,856407 528,618713 L 807,816200 528,618713 M 81,856407 538,618713 L 807,816200 538,618713 M 81,856407 548,618713 L 807,816200 548,618713 M 81,856407 558,618713 L 807,816200 558,618713 M 81,856407 568,618713 L 807,816200 568,618713 M 81,856407 578,618713 L 807,816200 578,618713 M 81,856407 588,618713 L 807,816200 588,618713 M 81,856407 598,618713 L 807,816200 598,618713 M 81,856407 608,618713 L 807,816200 608,618713 M 81,856407 618,618713 L 807,816200 618,618713 M 81,856407 628,618713 L 807,816200 628,618713 M 81,856407 638,618713 L 807,816200 638,618713 M 81,856407 648,618713 L 807,816200 648,618713 M 81,856407 658,618713 L 807,816200 658,618713 M 81,856407 668,618713 L 807,816200 668,618713 M 81,856407 678,618713 L 807,816200 678,618713 M 81,856407 688,618713 L 807,816200 688,618713 M 81,856407 698,618713 L 807,816200 698,618713 M 81,856407 708,618713 L 807,816200 708,618713 M 81,856407 718,618713 L 807,816200 718,618713 M 81,856407 728,618713 L 807,816200 728,618713 M 81,856407 738,618713 L 807,816200 738,618713 M 81,856407 748,618713 L 807,816200 748,618713 "
       id="path4201" />
    <g
       transform="translate(-93.64395,-654.4611)"
       id="g5957"
       inkscape:export-filename="D:\Desktop\2.png"
       inkscape:export-xdpi="101.65"
       inkscape:export-ydpi="101.65">
      <rect
         y="780.98584"
         x="240.82893"
         height="159.70026"
         width="159.56664"
         id="rect5959"
         style="opacity:0.6;fill:#e6e6ff;fill-opacity:1;fill-rule:nonzero;stroke:#8080b4;stroke-width:2.00000095;stroke-linecap:butt;stroke-linejoin:miter;stroke-miterlimit:4;stroke-dasharray:none;stroke-dashoffset:0;stroke-opacity:1" />
      <rect
         style="opacity:1;fill:url(#linearGradient5963);fill-opacity:1;fill-rule:nonzero;stroke:none;stroke-width:2.00000095;stroke-linecap:butt;stroke-linejoin:miter;stroke-miterlimit:4;stroke-dasharray:none;stroke-dashoffset:0;stroke-opacity:1"
         id="rect5961"
         width="157.31664"
         height="152.45026"
         x="242.0564"
         y="782.12207" />
    </g>
    <image
       height="94.395775"
       x="159.6824"
       inkscape:export-ydpi="101.65"
       inkscape:export-filename="D:\Desktop\2.png"
       y="140.34456"
       sodipodi:absref="D:\Desktop\cb-big.png"
       width="91.86937"
       inkscape:export-xdpi="101.65"
       xlink:href="cb-big.png"
       id="image4696" />
    <g
       id="g5940"
       transform="translate(-49.14392,-622.9611)"
       inkscape:export-filename="D:\Desktop\2.png"
       inkscape:export-xdpi="101.65"
       inkscape:export-ydpi="101.65">
      <rect
         style="opacity:0.6;fill:#e6e6ff;fill-opacity:1;fill-rule:nonzero;stroke:#8080b4;stroke-width:2.00000095;stroke-linecap:butt;stroke-linejoin:miter;stroke-miterlimit:4;stroke-dasharray:none;stroke-dashoffset:0;stroke-opacity:1"
         id="rect4722"
         width="159.56664"
         height="159.70026"
         x="240.82893"
         y="780.98584" />
      <rect
         y="782.12207"
         x="242.0564"
         height="152.45026"
         width="157.31664"
         id="rect5917"
         style="opacity:1;fill:url(#linearGradient5944);fill-opacity:1;fill-rule:nonzero;stroke:none;stroke-width:2.00000095;stroke-linecap:butt;stroke-linejoin:miter;stroke-miterlimit:4;stroke-dasharray:none;stroke-dashoffset:0;stroke-opacity:1" />
    </g>
    <g
       transform="translate(136.356,-628.9611)"
       id="g5973"
       inkscape:export-filename="D:\Desktop\2.png"
       inkscape:export-xdpi="101.65"
       inkscape:export-ydpi="101.65">
      <rect
         y="780.98584"
         x="240.82893"
         height="159.70026"
         width="159.56664"
         id="rect5975"
         style="opacity:0.6;fill:#e6e6ff;fill-opacity:1;fill-rule:nonzero;stroke:#8080b4;stroke-width:2.00000095;stroke-linecap:butt;stroke-linejoin:miter;stroke-miterlimit:4;stroke-dasharray:none;stroke-dashoffset:0;stroke-opacity:1" />
      <rect
         style="opacity:1;fill:url(#linearGradient5979);fill-opacity:1;fill-rule:nonzero;stroke:none;stroke-width:2.00000095;stroke-linecap:butt;stroke-linejoin:miter;stroke-miterlimit:4;stroke-dasharray:none;stroke-dashoffset:0;stroke-opacity:1"
         id="rect5977"
         width="157.31664"
         height="152.45026"
         x="242.0564"
         y="782.12207" />
    </g>
    <g
       id="g5965"
       transform="translate(54.35605,-642.9611)"
       inkscape:export-filename="D:\Desktop\2.png"
       inkscape:export-xdpi="101.65"
       inkscape:export-ydpi="101.65">
      <rect
         style="opacity:0.6;fill:#e6e6ff;fill-opacity:1;fill-rule:nonzero;stroke:#8080b4;stroke-width:2.00000095;stroke-linecap:butt;stroke-linejoin:miter;stroke-miterlimit:4;stroke-dasharray:none;stroke-dashoffset:0;stroke-opacity:1"
         id="rect5967"
         width="159.56664"
         height="159.70026"
         x="240.82893"
         y="780.98584" />
      <rect
         y="782.12207"
         x="242.0564"
         height="152.45026"
         width="157.31664"
         id="rect5969"
         style="opacity:1;fill:url(#linearGradient5971);fill-opacity:1;fill-rule:nonzero;stroke:none;stroke-width:2.00000095;stroke-linecap:butt;stroke-linejoin:miter;stroke-miterlimit:4;stroke-dasharray:none;stroke-dashoffset:0;stroke-opacity:1" />
    </g>
    <g
       id="g5946"
       inkscape:export-filename="D:\Desktop\2.png"
       inkscape:export-xdpi="101.65"
       inkscape:export-ydpi="101.65"
       transform="translate(15.55635,-606.6976)">
      <text
         xml:space="preserve"
         x="380.65912"
         inkscape:export-ydpi="576.3244"
         inkscape:export-filename="D:\Desktop\curve.png"
         y="826.63007"
         inkscape:export-xdpi="576.3244"
         sodipodi:linespacing="125%"
         id="text4704"
         style="font-size:13.37703609px;font-style:italic;font-variant:normal;font-weight:normal;font-stretch:normal;text-align:start;line-height:125%;writing-mode:lr-tb;text-anchor:start;opacity:1;fill:black;fill-opacity:1;stroke:none;stroke-width:1px;stroke-linecap:butt;stroke-linejoin:miter;stroke-opacity:1;font-family:Times New Roman"><tspan
           sodipodi:role="line"
           x="380.65912"
           y="826.63007"
           id="tspan4706"
           style="font-size:13.37703609px;font-style:italic;font-variant:normal;font-weight:normal;font-stretch:normal;text-align:start;line-height:125%;writing-mode:lr-tb;text-anchor:start;fill:black;fill-opacity:1;font-family:Times New Roman"> </tspan><tspan
           sodipodi:role="line"
           x="380.65912"
           y="846.08701"
           id="tspan4708"
           style="font-size:16.72129059px;font-style:italic;font-variant:normal;font-weight:normal;font-stretch:normal;text-align:center;line-height:125%;writing-mode:lr-tb;text-anchor:middle;fill:black;fill-opacity:1;font-family:Times New Roman">The open source, cross-platform IDE</tspan><tspan
           sodipodi:role="line"
           x="381.40912"
           y="858.21845"
           id="tspan4710"
           style="font-size:6px;font-style:italic;font-variant:normal;font-weight:normal;font-stretch:normal;text-align:center;line-height:125%;writing-mode:lr-tb;text-anchor:middle;fill:black;fill-opacity:1;font-family:Times New Roman"> </tspan></text>
      <text
         style="font-size:28.96531677px;font-style:normal;font-variant:normal;font-weight:normal;font-stretch:normal;text-align:start;line-height:125%;writing-mode:lr-tb;text-anchor:start;fill:black;fill-opacity:1;stroke:none;stroke-width:1;stroke-linecap:butt;stroke-linejoin:round;stroke-miterlimit:4;stroke-dasharray:none;stroke-opacity:1;font-family:Arial"
         id="text4698"
         sodipodi:linespacing="125%"
         inkscape:export-xdpi="576.3244"
         y="823.79291"
         inkscape:export-filename="D:\Desktop\curve.png"
         inkscape:export-ydpi="576.3244"
         x="254.41876"
         xml:space="preserve"><tspan
           style="font-size:38.62042236px;font-style:normal;font-variant:normal;font-weight:bold;font-stretch:normal;text-align:start;line-height:100%;writing-mode:lr-tb;text-anchor:start;stroke:none;stroke-width:1;stroke-linejoin:round;stroke-miterlimit:4;stroke-dasharray:none;stroke-opacity:1;font-family:Tahoma"
           id="tspan4700"
           y="823.79291"
           x="254.41876"
           sodipodi:role="line">Code::Blocks</tspan><tspan
           style="font-size:12px;font-style:italic;font-variant:normal;font-weight:normal;font-stretch:normal;text-align:start;line-height:125%;writing-mode:lr-tb;text-anchor:start;stroke:none;stroke-width:1;stroke-linejoin:round;stroke-miterlimit:4;stroke-dasharray:none;stroke-opacity:1;font-family:Arial"
           id="tspan4702"
           y="862.41333"
           x="254.41876"
           sodipodi:role="line" /></text>
      <text
         style="font-size:15px;font-style:italic;font-variant:normal;font-weight:normal;font-stretch:normal;text-align:center;line-height:125%;writing-mode:lr-tb;text-anchor:middle;opacity:1;fill:black;fill-opacity:1;stroke:none;stroke-width:1px;stroke-linecap:butt;stroke-linejoin:miter;stroke-opacity:1;font-family:Times New Roman"
         id="text4712"
         sodipodi:linespacing="125%"
         inkscape:export-xdpi="576.3244"
         y="871.34381"
         inkscape:export-filename="D:\Desktop\curve.png"
         inkscape:export-ydpi="576.3244"
         x="381.17233"
         xml:space="preserve"><tspan
           style="font-size:15px;font-style:italic;font-variant:normal;font-weight:normal;font-stretch:normal;text-align:center;line-height:125%;writing-mode:lr-tb;text-anchor:middle;fill:black;fill-opacity:1;font-family:Times New Roman"
           y="871.34381"
           x="381.17233"
           sodipodi:role="line"
           id="tspan4714">http://www.codeblocks.org</tspan></text>
    </g>
    <rect
       rx="79.783226"
       style="opacity:0.6;fill:#e6e6ff;fill-opacity:1;fill-rule:nonzero;stroke:#8080b4;stroke-width:1.99999881;stroke-linecap:butt;stroke-linejoin:miter;stroke-miterlimit:4;stroke-dasharray:none;stroke-dashoffset:0;stroke-opacity:1"
       id="rect5983"
       width="55.952042"
       height="55.998894"
       x="200.03566"
       y="256.375"
       ry="79.783226"
       inkscape:export-filename="D:\Desktop\2.png"
       inkscape:export-xdpi="101.65"
       inkscape:export-ydpi="101.65" />
    <rect
       y="257.48053"
       x="200.46606"
       height="52.749577"
       width="55.163078"
       id="rect5985"
       style="fill:url(#linearGradient6000);fill-opacity:1;fill-rule:nonzero;stroke:none;stroke-width:2.00000095;stroke-linecap:butt;stroke-linejoin:miter;stroke-miterlimit:4;stroke-dasharray:none;stroke-dashoffset:0;stroke-opacity:1"
       ry="76.225044"
       rx="76.225044"
       inkscape:export-filename="D:\Desktop\2.png"
       inkscape:export-xdpi="101.65"
       inkscape:export-ydpi="101.65" />
    <text
       xml:space="preserve"
       style="font-size:24px;font-style:normal;font-variant:normal;font-weight:normal;font-stretch:normal;text-align:start;line-height:125%;writing-mode:lr-tb;text-anchor:start;fill:black;fill-opacity:1;stroke:none;stroke-width:1px;stroke-linecap:butt;stroke-linejoin:miter;stroke-opacity:1;font-family:Arial"
       x="228.05635"
       y="283.66455"
       id="text6003"
       sodipodi:linespacing="125%"
       inkscape:export-filename="D:\Desktop\6.12.4.png"
       inkscape:export-xdpi="101.13"
       inkscape:export-ydpi="101.13"><tspan
         sodipodi:role="line"
         id="tspan6005"
         x="228.05635"
         y="283.66455"
         style="font-size:20px;font-weight:bold;text-align:center;text-anchor:middle">6.12</tspan><tspan
         sodipodi:role="line"
         x="228.05635"
         y="300.30882"
         id="tspan6007"
         style="font-size:10px;font-weight:bold;text-align:center;text-anchor:middle">3190</tspan></text>
  </g>
</svg>
