<?xml version="1.0" encoding="UTF-8" standalone="no"?>
<!-- Created with Inkscape (http://www.inkscape.org/) -->
<svg
   xmlns:dc="http://purl.org/dc/elements/1.1/"
   xmlns:cc="http://web.resource.org/cc/"
   xmlns:rdf="http://www.w3.org/1999/02/22-rdf-syntax-ns#"
   xmlns:svg="http://www.w3.org/2000/svg"
   xmlns="http://www.w3.org/2000/svg"
   xmlns:xlink="http://www.w3.org/1999/xlink"
   xmlns:sodipodi="http://inkscape.sourceforge.net/DTD/sodipodi-0.dtd"
   xmlns:inkscape="http://www.inkscape.org/namespaces/inkscape"
   width="744.09448819"
   height="1052.3622047"
   id="svg2"
   sodipodi:version="0.32"
   inkscape:version="0.43"
   sodipodi:docbase="D:\Desktop"
   sodipodi:docname="a.svg"
   inkscape:export-filename="D:\Desktop\default-code.png"
   inkscape:export-xdpi="9"
   inkscape:export-ydpi="9">
  <metadata
     id="metadata249">
    <rdf:RDF>
      <cc:Work
         rdf:about="">
        <dc:format>image/svg+xml</dc:format>
        <dc:type
           rdf:resource="http://purl.org/dc/dcmitype/StillImage" />
      </cc:Work>
    </rdf:RDF>
  </metadata>
  <defs
     id="defs4">
    <linearGradient
       inkscape:collect="always"
       id="linearGradient3120">
      <stop
         style="stop-color:#000000;stop-opacity:1;"
         offset="0"
         id="stop3122" />
      <stop
         style="stop-color:#000000;stop-opacity:0;"
         offset="1"
         id="stop3124" />
    </linearGradient>
    <linearGradient
       inkscape:collect="always"
       id="linearGradient3111">
      <stop
         style="stop-color:#ffffff;stop-opacity:1;"
         offset="0"
         id="stop3113" />
      <stop
         style="stop-color:#ffffff;stop-opacity:0;"
         offset="1"
         id="stop3115" />
    </linearGradient>
    <linearGradient
       inkscape:collect="always"
       id="linearGradient3093">
      <stop
         style="stop-color:#ffffff;stop-opacity:1;"
         offset="0"
         id="stop3095" />
      <stop
         style="stop-color:#ffffff;stop-opacity:0;"
         offset="1"
         id="stop3097" />
    </linearGradient>
    <linearGradient
       id="linearGradient3083">
      <stop
         style="stop-color:#ffffff;stop-opacity:1;"
         offset="0"
         id="stop3085" />
      <stop
         style="stop-color:#ffffff;stop-opacity:0;"
         offset="1"
         id="stop3087" />
    </linearGradient>
    <linearGradient
       id="linearGradient2544">
      <stop
         style="stop-color:#ffffff;stop-opacity:1;"
         offset="0"
         id="stop2546" />
      <stop
         style="stop-color:#ffffff;stop-opacity:0;"
         offset="1"
         id="stop2548" />
    </linearGradient>
    <linearGradient
       id="linearGradient2394">
      <stop
         style="stop-color:#ffffff;stop-opacity:1;"
         offset="0"
         id="stop2396" />
      <stop
         style="stop-color:#d94946;stop-opacity:0;"
         offset="1"
         id="stop2398" />
    </linearGradient>
    <linearGradient
       id="linearGradient1492">
      <stop
         style="stop-color:#cbcbcb;stop-opacity:1.0000000;"
         offset="0.0000000"
         id="stop1493" />
      <stop
         style="stop-color:#f0f0f0;stop-opacity:1.0000000;"
         offset="0.34923077"
         id="stop1496" />
      <stop
         style="stop-color:#e2e2e2;stop-opacity:1.0000000;"
         offset="1.0000000"
         id="stop1494" />
    </linearGradient>
    <linearGradient
       id="linearGradient1501">
      <stop
         style="stop-color:#ffffff;stop-opacity:1.0000000;"
         offset="0.0000000"
         id="stop1502" />
      <stop
         style="stop-color:#ffffff;stop-opacity:0.0000000;"
         offset="1.0000000"
         id="stop1504" />
    </linearGradient>
    <linearGradient
       id="linearGradient4873">
      <stop
         style="stop-color:#d88721;stop-opacity:1.0000000;"
         offset="0.0000000"
         id="stop4874" />
      <stop
         style="stop-color:#a85c00;stop-opacity:1.0000000;"
         offset="0.50000000"
         id="stop4876" />
      <stop
         style="stop-color:#643e0e;stop-opacity:1.0000000;"
         offset="1.0000000"
         id="stop4875" />
    </linearGradient>
    <linearGradient
       inkscape:collect="always"
       xlink:href="#linearGradient1501"
       id="linearGradient3918"
       gradientUnits="userSpaceOnUse"
       gradientTransform="matrix(1.31413,0,0,1.3435,-646.3923,-4.399137)"
       x1="687.96373"
       y1="236.12772"
       x2="330.88033"
       y2="418.53634" />
    <linearGradient
       inkscape:collect="always"
       xlink:href="#linearGradient1492"
       id="linearGradient3924"
       gradientUnits="userSpaceOnUse"
       gradientTransform="matrix(1.269506,0,0,1.390726,-646.3923,-4.399137)"
       x1="749.24924"
       y1="207.82652"
       x2="380.10222"
       y2="686.15207" />
    <linearGradient
       inkscape:collect="always"
       xlink:href="#linearGradient1501"
       id="linearGradient3944"
       gradientUnits="userSpaceOnUse"
       gradientTransform="matrix(1.31413,0,0,1.3435,-589.268,-112.2003)"
       x1="687.96373"
       y1="236.12772"
       x2="330.88033"
       y2="418.53634" />
    <linearGradient
       inkscape:collect="always"
       xlink:href="#linearGradient1492"
       id="linearGradient3947"
       gradientUnits="userSpaceOnUse"
       gradientTransform="matrix(1.269506,0,0,1.390726,-589.268,-112.2003)"
       x1="749.24924"
       y1="207.82652"
       x2="380.10222"
       y2="686.15207" />
    <linearGradient
       inkscape:collect="always"
       xlink:href="#linearGradient1492"
       id="linearGradient2480"
       gradientUnits="userSpaceOnUse"
       gradientTransform="matrix(1.26933,0,0,1.390919,-646.3923,-4.399137)"
       x1="741.63899"
       y1="169.44361"
       x2="622.33327"
       y2="287.73826" />
    <radialGradient
       inkscape:collect="always"
       xlink:href="#linearGradient2544"
       id="radialGradient2393"
       cx="-50.826057"
       cy="398.33347"
       fx="-50.826057"
       fy="398.33347"
       r="178.76563"
       gradientTransform="matrix(4.505232e-2,0.114978,-0.516781,0.202491,270.4615,422.4345)"
       gradientUnits="userSpaceOnUse" />
    <linearGradient
       inkscape:collect="always"
       xlink:href="#linearGradient4873"
       id="linearGradient2166"
       gradientUnits="userSpaceOnUse"
       x1="128.06415"
       y1="550.53619"
       x2="722.35895"
       y2="656.12781"
       gradientTransform="translate(-0.576047,0.39237)" />
    <radialGradient
       inkscape:collect="always"
       xlink:href="#linearGradient3083"
       id="radialGradient3089"
       cx="161.13457"
       cy="409.02228"
       fx="161.13457"
       fy="409.02228"
       r="37.276191"
       gradientTransform="matrix(1,0,0,1.535362,0,-232.4125)"
       gradientUnits="userSpaceOnUse" />
    <radialGradient
       inkscape:collect="always"
       xlink:href="#linearGradient3093"
       id="radialGradient3099"
       cx="207.76694"
       cy="368.9187"
       fx="207.76694"
       fy="368.9187"
       r="45.910257"
       gradientTransform="matrix(0.944072,0.205864,-6.686339e-2,0.306628,36.88118,216.3477)"
       gradientUnits="userSpaceOnUse" />
    <radialGradient
       inkscape:collect="always"
       xlink:href="#linearGradient3111"
       id="radialGradient3117"
       cx="124.38999"
       cy="228.021"
       fx="124.38999"
       fy="228.021"
       r="148.36791"
       gradientTransform="matrix(1.066723,0.55761,-3.209795e-2,6.140426e-2,11.4462,501.8458)"
       gradientUnits="userSpaceOnUse" />
    <linearGradient
       inkscape:collect="always"
       xlink:href="#linearGradient3120"
       id="linearGradient3126"
       x1="157.35756"
       y1="590.18811"
       x2="161.59338"
       y2="581.93811"
       gradientUnits="userSpaceOnUse" />
    <linearGradient
       inkscape:collect="always"
       xlink:href="#linearGradient2394"
       id="linearGradient3128"
       gradientUnits="userSpaceOnUse"
       gradientTransform="matrix(1.913259,0.404167,-0.404167,1.913259,1283.126,-299.7038)"
       x1="-485.74158"
       y1="543.93365"
       x2="-493.12726"
       y2="572.04114" />
  </defs>
  <sodipodi:namedview
     id="base"
     pagecolor="#ffffff"
     bordercolor="#666666"
     borderopacity="1.0"
     inkscape:pageopacity="0.0"
     inkscape:pageshadow="2"
     inkscape:zoom="0.062500002"
     inkscape:cx="-69.997229"
     inkscape:cy="-1543.1802"
     inkscape:document-units="px"
     inkscape:current-layer="layer1"
     inkscape:window-width="1280"
     inkscape:window-height="924"
     inkscape:window-x="-4"
     inkscape:window-y="-4"
     showguides="true"
     inkscape:guide-bbox="true" />
  <g
     inkscape:label="Layer 1"
     inkscape:groupmode="layer"
     id="layer1">
    <path
       d="M -193.565,68.67699 L -193.565,233.21525 L -193.565,397.75352 L -193.565,562.2918 L -193.565,726.83 L -43.41,726.83 L 106.74499,726.83 L 256.89995,726.83 L 407.05493,726.83 L 407.05493,562.2918 L 407.05493,397.75352 L 407.05493,233.21525 L 256.89995,68.67699 L 106.74499,68.67699 L -43.41,68.67699 L -193.565,68.67699 z "
       id="path1835"
       sodipodi:nodetypes="cccccccccccccccc"
       style="fill:#ffffff;fill-rule:evenodd;stroke-width:0.42649043;stroke-opacity:0.36477984"
       inkscape:export-filename="D:\Desktop\cb-icons\default-code"
       inkscape:export-xdpi="9"
       inkscape:export-ydpi="9" />
    <path
       d="M -193.3181,69.49283 L -193.3181,234.03103 L -193.3181,398.56924 L -193.3181,563.1074 L -193.3181,727.6456 L -43.1632,727.6456 L 106.99174,727.6456 L 257.14665,727.6456 L 407.30157,727.6456 L 407.30157,563.1074 L 407.30157,398.56924 L 407.30157,234.03103 L 407.08441,69.49283 L 106.99174,69.49283 L -43.1632,69.49283 L -193.3181,69.49283 z "
       id="path1845"
       sodipodi:nodetypes="cccccccccccccccc"
       style="fill:url(#linearGradient3947);fill-opacity:1;fill-rule:evenodd;stroke:#000000;stroke-width:1.91005516;stroke-opacity:0.36477984"
       inkscape:export-filename="D:\Desktop\cb-icons\default-code"
       inkscape:export-xdpi="9"
       inkscape:export-ydpi="9" />
    <path
       d="M -188.9117,120.2068 L -191.6169,723.4463 L 398.09708,723.4463 L 398.43522,574.3271 C 385.2478,579.3992 252.02114,390.71777 84.30434,398.8331 C -83.5647,406.95579 -40.1307,144.55278 -188.9117,120.2068 z "
       id="path1849"
       sodipodi:nodetypes="cccczc"
       style="fill:url(#linearGradient3944);fill-opacity:1;fill-rule:evenodd;stroke-width:1pt"
       inkscape:export-filename="D:\Desktop\cb-icons\default-code"
       inkscape:export-xdpi="9"
       inkscape:export-ydpi="9" />
    <path
       style="fill:#ffffff;fill-rule:evenodd;stroke-width:0.42649043;stroke-opacity:0.36477984"
       sodipodi:nodetypes="cccccccccccccccc"
       id="path930"
       d="M -250.68886,176.47819 L -250.68886,341.01645 L -250.68886,505.55472 L -250.68886,670.09295 L -250.68886,834.63122 L -100.53388,834.63122 L 49.621094,834.63122 L 199.77605,834.63122 L 349.93103,834.63122 L 349.93103,670.09295 L 349.93103,505.55472 L 349.93103,341.01645 L 199.77605,176.47819 L 49.621094,176.47819 L -100.53388,176.47819 L -250.68886,176.47819 z "
       inkscape:export-filename="D:\Desktop\cb-icons\default-code"
       inkscape:export-xdpi="9"
       inkscape:export-ydpi="9" />
    <path
       style="fill:url(#linearGradient3924);fill-opacity:1;fill-rule:evenodd;stroke:#000000;stroke-width:1.91005516;stroke-opacity:0.36477984"
       sodipodi:nodetypes="cccccccccccccccc"
       id="rect900"
       d="M -250.4424,177.294 L -250.4424,341.83219 L -250.4424,506.3704 L -250.4424,670.90859 L -250.4424,835.44679 L -100.28749,835.44679 L 49.867439,835.44679 L 200.02235,835.44679 L 350.17727,835.44679 L 350.17727,670.90859 L 350.17727,506.3704 L 350.17727,341.83219 L 200.02235,177.294 L 49.867439,177.294 L -100.28749,177.294 L -250.4424,177.294 z "
       inkscape:export-filename="D:\Desktop\cb-icons\default-code"
       inkscape:export-xdpi="9"
       inkscape:export-ydpi="9" />
    <path
       style="fill:url(#linearGradient3918);fill-opacity:1;fill-rule:evenodd;stroke-width:1pt"
       sodipodi:nodetypes="cccczc"
       id="path1500"
       d="M -246.03604,228.00796 L -248.74116,831.24744 L 340.97278,831.24744 L 341.31092,682.12826 C 328.1235,687.20035 194.89684,498.51894 27.180036,506.63426 C -140.68904,514.75696 -97.255013,252.35394 -246.03604,228.00796 z "
       inkscape:export-filename="D:\Desktop\cb-icons\default-code"
       inkscape:export-xdpi="9"
       inkscape:export-ydpi="9" />
    <text
       xml:space="preserve"
       style="font-size:23.87514687px;font-style:normal;font-variant:normal;font-weight:normal;font-stretch:normal;text-align:start;line-height:125%;writing-mode:lr-tb;text-anchor:start;fill:#000000;fill-opacity:1;stroke:none;stroke-width:1px;stroke-linecap:butt;stroke-linejoin:miter;stroke-opacity:1;font-family:Arial"
       x="-187.57085"
       y="285.41031"
       id="text1721"
       sodipodi:linespacing="125%"
       inkscape:export-filename="D:\Desktop\cb-icons\default-code"
       inkscape:export-xdpi="9"
       inkscape:export-ydpi="9"><tspan
         sodipodi:role="line"
         id="tspan1723"
         x="-187.57085"
         y="285.41031"
         style="fill:#505050;fill-opacity:1">/*</tspan><tspan
         sodipodi:role="line"
         x="-187.57085"
         y="315.25424"
         id="tspan3008"
         style="fill:#505050;fill-opacity:1">* Copyright (c) 1930 by me</tspan><tspan
         sodipodi:role="line"
         x="-187.57085"
         y="345.09818"
         id="tspan3016"
         style="fill:#505050;fill-opacity:1">* All rights reserved.</tspan><tspan
         sodipodi:role="line"
         x="-187.57085"
         y="374.94211"
         id="tspan3012"
         style="fill:#505050;fill-opacity:1">*/</tspan><tspan
         sodipodi:role="line"
         x="-187.57085"
         y="404.78604"
         id="tspan2996" /><tspan
         sodipodi:role="line"
         x="-187.57085"
         y="434.62998"
         id="tspan3002"><tspan
   style="fill:#0000ff;fill-opacity:1"
   id="tspan3004">int main</tspan>(<tspan
   style="fill:#0000ff;fill-opacity:1"
   id="tspan2988">int</tspan> argc, <tspan
   style="fill:#0000ff;fill-opacity:1"
   id="tspan2980">char</tspan>* argv[])</tspan><tspan
         style="fill:#ff0000;fill-opacity:1"
         sodipodi:role="line"
         x="-187.57085"
         y="464.47391"
         id="tspan1725"> {</tspan><tspan
         sodipodi:role="line"
         x="-187.57085"
         y="494.31784"
         id="tspan1781"
         style="fill:#ff0000;fill-opacity:1"><tspan
   style="fill:#0000ff;fill-opacity:1"
   id="tspan2920">     return</tspan><tspan
   style="fill:#000000;fill-opacity:1"
   id="tspan2912"> 0</tspan>;   </tspan><tspan
         sodipodi:role="line"
         x="-187.57085"
         y="524.16178"
         id="tspan1787"><tspan
   style="fill:#fe0000;fill-opacity:1"
   id="tspan3246"> }</tspan>;</tspan></text>
    <image
       id="image3961"
       height="411"
       width="400"
       sodipodi:absref="D:\Desktop\cb-big.png"
       xlink:href="cb-big.png"
       x="-167.80482"
       y="343.95151"
       style="opacity:0.375"
       inkscape:export-filename="D:\Desktop\cb-icons\default-code"
       inkscape:export-xdpi="9"
       inkscape:export-ydpi="9" />
    <g
       inkscape:label="Layer 1"
       id="g5125"
       transform="matrix(1.374556,4.665478,-4.665478,1.374556,-614.0243,321.9612)" />
    <path
       style="fill:url(#linearGradient2480);fill-opacity:1;fill-rule:evenodd;stroke-width:0.95407495pt"
       sodipodi:nodetypes="cccc"
       id="path906"
       d="M 350.17727,341.83219 C 304.90763,328.43015 246.24838,330.33054 201.93516,337.96932 C 209.58635,288.87409 210.54276,227.34564 200.02235,177.294 L 350.17727,341.83219 z "
       inkscape:export-filename="D:\Desktop\cb-icons\default-code"
       inkscape:export-xdpi="9"
       inkscape:export-ydpi="9" />
    <path
       style="fill:#000000;fill-opacity:1;fill-rule:evenodd;stroke:none;stroke-width:1px;stroke-linecap:butt;stroke-linejoin:miter;stroke-opacity:1"
       d="M -2.5006642,572.5016 L -6.1112724,587.22832 L 258.89048,730.64906 L 326.21724,693.4066 L 328.01563,677.79741 L -2.5006642,572.5016 z "
       id="path2380"
       sodipodi:nodetypes="cccccc"
       inkscape:export-filename="D:\Desktop\cb-icons\default-code"
       inkscape:export-xdpi="9"
       inkscape:export-ydpi="9" />
    <path
       style="fill:#915321;fill-opacity:1;fill-rule:evenodd;stroke:#000000;stroke-width:1.00000012px;stroke-linecap:butt;stroke-linejoin:bevel;stroke-opacity:1"
       d="M 272.73973,655.62779 L 258.54337,722.83102 L 333.40094,681.87052 L 344.40431,626.23444 L 272.73973,655.62779 z "
       id="path2378"
       sodipodi:nodetypes="ccccc"
       inkscape:export-filename="D:\Desktop\cb-icons\default-code"
       inkscape:export-xdpi="9"
       inkscape:export-ydpi="9" />
    <path
       style="fill:url(#linearGradient2166);fill-opacity:1;fill-rule:evenodd;stroke:#000000;stroke-width:1.00000012px;stroke-linecap:butt;stroke-linejoin:bevel;stroke-opacity:1"
       d="M 12.376133,509.20395 L 84.351583,485.43499 L 344.39495,626.30933 L 272.16365,656.02016 C 272.16365,656.02016 12.376133,509.20395 12.376133,509.20395 z "
       id="path2123"
       sodipodi:nodetypes="ccccc"
       inkscape:export-filename="D:\Desktop\cb-icons\default-code"
       inkscape:export-xdpi="9"
       inkscape:export-ydpi="9" />
    <path
       style="fill:#de995f;fill-opacity:1;fill-rule:evenodd;stroke:url(#linearGradient3126);stroke-width:1.00000012px;stroke-linecap:butt;stroke-linejoin:bevel;stroke-opacity:1"
       d="M 15.187106,508.28438 C 8.4032945,510.09912 -1.7407248,510.9542 -4.6642121,524.20218 C -8.2473257,540.43298 -11.642434,575.56705 -11.642434,575.56705 L 258.59389,722.59186 C 258.59389,722.59186 270.0116,668.54229 270.0116,668.54229 C 273.01922,651.93939 278.65395,653.35778 285.09322,650.36777 C 285.32793,650.21776 15.307444,508.26309 15.187106,508.28438 z "
       id="path1503"
       sodipodi:nodetypes="csccccc"
       inkscape:export-filename="D:\Desktop\cb-icons\default-code"
       inkscape:export-xdpi="9"
       inkscape:export-ydpi="9" />
    <path
       sodipodi:nodetypes="csccccc"
       id="path2384"
       d="M 15.278489,508.46035 C 8.494677,510.27509 -1.649339,511.13017 -4.572828,524.37815 C -8.155942,540.60895 -11.551051,575.74302 -11.551051,575.74302 L 258.68528,722.76783 C 258.68528,722.76783 270.10299,668.71826 270.10299,668.71826 C 273.11061,652.11536 278.74534,653.53375 285.18461,650.54374 C 285.41932,650.39374 15.398826,508.43906 15.278489,508.46035 z "
       style="opacity:0.67241378;fill:url(#linearGradient3128);fill-opacity:1;fill-rule:evenodd;stroke:none;stroke-width:1.00000012px;stroke-linecap:butt;stroke-linejoin:bevel;stroke-opacity:1"
       inkscape:export-filename="D:\Desktop\cb-icons\default-code"
       inkscape:export-xdpi="9"
       inkscape:export-ydpi="9" />
    <path
       style="fill:#5a4444;fill-opacity:1;fill-rule:evenodd;stroke:#000000;stroke-width:1px;stroke-linecap:butt;stroke-linejoin:miter;stroke-opacity:1"
       d="M 218.79842,359.37692 C 199.18168,355.23297 155.74667,346.76415 144.67697,392.47623 C 133.60726,438.1883 154.13895,458.07129 155.37771,468.93234 C 156.61649,479.7934 141.96518,555.84039 146.4813,564.56725 C 150.99741,573.29414 172.05208,586.38121 187.62999,583.8591 C 203.72625,581.25305 210.63816,575.2936 212.92447,564.47058 C 215.21079,553.64754 225.6421,504.26747 238.29395,487.86125 C 250.94583,471.45502 262.33066,459.37421 265.25537,452.21916 C 267.87133,445.81949 280.4079,423.97524 278.1781,404.42533 C 275.94831,384.87543 251.78203,368.81772 244.48409,366.56945 C 237.18617,364.32116 225.97248,360.53908 218.79842,359.37692 z "
       id="path2402"
       sodipodi:nodetypes="csssssssssc" />
    <path
       style="opacity:0.62068942;fill:#68585b;fill-opacity:1;fill-rule:evenodd;stroke:none;stroke-width:1px;stroke-linecap:butt;stroke-linejoin:miter;stroke-opacity:1"
       d="M 166.18689,491.35454 C 166.18689,491.35454 206.24895,485.68496 215.96114,446.39906 C 225.67337,407.11314 195.4906,389.43118 183.4766,384.42009 C 171.46261,379.40899 148.35361,360.89252 143.66747,410.63521 C 142.50281,422.99802 143.98825,436.07725 150.27485,451.04251 C 154.73384,461.65709 162.17973,474.23432 166.18689,491.35454 z "
       id="path2404"
       sodipodi:nodetypes="cssssc" />
    <path
       sodipodi:nodetypes="cssssssc"
       id="path2406"
       d="M 212.79774,541.65514 C 213.32514,542.07456 215.2577,545.09089 216.60926,538.97826 C 224.64245,502.64738 231.69771,491.68776 243.01421,476.41644 C 249.55402,467.59114 259.02018,458.4594 267.03434,441.28897 C 282.05996,409.09639 277.0272,382.27685 252.8237,407.37217 C 243.78716,416.7417 235.43413,421.15541 233.68168,437.77649 C 232.37966,450.12558 232.41044,468.28998 233.02917,472.4104 C 234.77068,484.00825 208.79058,524.53493 212.79774,541.65514 z "
       style="opacity:0.62068942;fill:#68585b;fill-opacity:1;fill-rule:evenodd;stroke:none;stroke-width:1px;stroke-linecap:butt;stroke-linejoin:miter;stroke-opacity:1" />
    <path
       style="opacity:0.3;fill:#ffffff;fill-opacity:1;fill-rule:evenodd;stroke:none;stroke-width:1px;stroke-linecap:butt;stroke-linejoin:miter;stroke-opacity:1"
       d="M 173.11892,373.3235 C 173.11892,373.3235 203.08734,392.02011 220.5866,394.48017 C 238.08586,396.94021 257.56664,391.69264 258.5813,391.90698 C 259.59596,392.12133 264.86458,393.94093 263.61655,396.50379 C 262.36854,399.06664 248.03971,407.52242 244.28358,406.90561 C 240.52743,406.28878 222.4756,404.77195 214.20825,401.25896 C 205.94087,397.74596 163.36298,372.67586 173.11892,373.3235 z "
       id="path2408" />
    <path
       style="fill:url(#radialGradient2393);fill-opacity:1;fill-rule:evenodd;stroke:none;stroke-width:1.00000012px;stroke-linecap:butt;stroke-linejoin:bevel;stroke-opacity:1;opacity:1"
       d="M 84.423381,485.47319 L 12.423381,509.25444 C 12.423381,509.25444 12.704031,509.41035 12.704631,509.41069 C 6.0783811,510.99536 -2.4350989,512.84675 -5.0766189,524.81694 C -8.6597489,541.04775 -12.076619,576.19194 -12.076619,576.19194 L 89.173381,631.72319 C 89.173391,631.7232 100.57963,577.66069 100.57963,577.66069 C 102.3419,567.93243 105.0051,564.4018 108.20463,562.53569 C 108.21657,562.52872 108.22392,562.51136 108.23588,562.50444 L 112.70463,560.66069 C 112.83262,560.61569 112.98196,560.55043 113.11088,560.50444 L 113.29838,560.44194 C 113.34689,560.42445 113.40599,560.39713 113.45463,560.37944 C 114.1842,560.11403 114.91878,559.82358 115.67338,559.47319 C 115.66608,559.46829 115.65758,559.45111 115.64213,559.44194 L 175.45463,534.84819 L 84.423381,485.47319 z "
       id="path1511"
       sodipodi:nodetypes="ccsccccsccccssccc" />
    <g
       inkscape:label="Layer 1"
       id="g2117"
       transform="matrix(1.374556,4.665478,-4.665478,1.374556,200.5461,256.8536)" />
    <path
       sodipodi:nodetypes="cssssc"
       id="path3081"
       d="M 166.18689,491.35454 C 166.18689,491.35454 206.24895,485.68496 215.96114,446.39906 C 225.67337,407.11314 195.4906,389.43118 183.4766,384.42009 C 171.46261,379.40899 148.35361,360.89252 143.66747,410.63521 C 142.50281,422.99802 143.98825,436.07725 150.27485,451.04251 C 154.73384,461.65709 162.17973,474.23432 166.18689,491.35454 z "
       style="opacity:0.83189655;fill:url(#radialGradient3089);fill-opacity:1.0;fill-rule:evenodd;stroke:none;stroke-width:1px;stroke-linecap:butt;stroke-linejoin:miter;stroke-opacity:1" />
    <path
       style="fill:url(#radialGradient3099);fill-opacity:1.0;fill-rule:evenodd;stroke:none;stroke-width:1px;stroke-linecap:butt;stroke-linejoin:miter;stroke-opacity:1;opacity:0.8"
       d="M 173.94827,371.7719 C 182.61033,377.07521 208.24295,392.63155 217.78889,393.33866 C 227.33483,394.04577 250.3158,393.16188 253.85133,392.10122 C 257.38687,391.04056 267.28636,378.48942 248.54803,370.35769 C 229.8097,362.22596 205.76807,356.92266 196.22213,357.45299 C 186.67619,357.98332 154.50283,359.04398 173.94827,371.7719 z "
       id="path3091" />
    <path
       inkscape:export-ydpi="9"
       inkscape:export-xdpi="9"
       inkscape:export-filename="D:\Desktop\cb-icons\default-code"
       style="opacity:1;fill:url(#radialGradient3117);fill-opacity:1;fill-rule:evenodd;stroke:none;stroke-width:1.00000012px;stroke-linecap:butt;stroke-linejoin:bevel;stroke-opacity:1"
       d="M 15.278489,508.46035 C 8.494677,510.27509 -1.64934,511.13017 -4.57283,524.37815 C -8.15594,540.60895 -11.55105,575.74302 -11.55105,575.74302 L 258.68528,722.76783 C 258.68528,722.76783 270.10299,668.71826 270.10299,668.71826 C 273.11061,652.11536 278.74534,653.53375 285.18461,650.54374 C 285.41932,650.39374 15.398826,508.43906 15.278489,508.46035 z "
       id="path3109"
       sodipodi:nodetypes="csccccc" />
  </g>
</svg>
