<?xml version="1.0" encoding="UTF-8" standalone="no"?>
<!-- Created with Inkscape (http://www.inkscape.org/) -->
<svg
   xmlns:dc="http://purl.org/dc/elements/1.1/"
   xmlns:cc="http://web.resource.org/cc/"
   xmlns:rdf="http://www.w3.org/1999/02/22-rdf-syntax-ns#"
   xmlns:svg="http://www.w3.org/2000/svg"
   xmlns="http://www.w3.org/2000/svg"
   xmlns:sodipodi="http://inkscape.sourceforge.net/DTD/sodipodi-0.dtd"
   xmlns:inkscape="http://www.inkscape.org/namespaces/inkscape"
   width="744.09448819"
   height="1052.3622047"
   id="svg2"
   sodipodi:version="0.32"
   inkscape:version="0.43"
   sodipodi:docbase="D:\Desktop\cb-icons"
   sodipodi:docname="devpak-installer.svg">
  <defs
     id="defs4">
    <linearGradient
       id="linearGradient2369">
      <stop
         style="stop-color:#404040;stop-opacity:1;"
         offset="0"
         id="stop2371" />
      <stop
         style="stop-color:#f0f0f0;stop-opacity:1;"
         offset="1"
         id="stop2373" />
    </linearGradient>
  </defs>
  <sodipodi:namedview
     id="base"
     pagecolor="#ffffff"
     bordercolor="#666666"
     borderopacity="1.0"
     inkscape:pageopacity="0.0"
     inkscape:pageshadow="2"
     inkscape:zoom="0.90075641"
     inkscape:cx="466.56742"
     inkscape:cy="691.99659"
     inkscape:document-units="px"
     inkscape:current-layer="layer1"
     inkscape:window-width="1280"
     inkscape:window-height="924"
     inkscape:window-x="-4"
     inkscape:window-y="-4"
     showguides="true"
     inkscape:guide-bbox="true" />
  <metadata
     id="metadata7">
    <rdf:RDF>
      <cc:Work
         rdf:about="">
        <dc:format>image/svg+xml</dc:format>
        <dc:type
           rdf:resource="http://purl.org/dc/dcmitype/StillImage" />
      </cc:Work>
    </rdf:RDF>
  </metadata>
  <g
     inkscape:label="Layer 1"
     inkscape:groupmode="layer"
     id="layer1">
    <path
       d="M 375.82937,494.21367 L 207.47061,364.43713 L 205.36613,360.22816 L 180.81381,215.72022 L 375.82937,288.67569 L 377.23236,290.78017 L 375.82937,494.21367 z "
       id="path13598"
       style="fill:#d1ae8b;fill-opacity:1;fill-rule:evenodd;stroke:none;stroke-width:1pt;stroke-linecap:butt;stroke-linejoin:miter;stroke-opacity:1"
       inkscape:export-filename="D:\Desktop\cb-icons\g2354.png"
       inkscape:export-xdpi="14.86"
       inkscape:export-ydpi="14.86" />
    <path
       d="M 377.23236,289.37718 L 516.82983,240.97404 L 493.6805,417.04924 L 375.82937,494.91516 L 377.23236,289.37718 z "
       id="path13599"
       style="fill:#d1ae8b;fill-opacity:1;fill-rule:evenodd;stroke:none;stroke-width:1pt;stroke-linecap:butt;stroke-linejoin:miter;stroke-opacity:1"
       inkscape:export-filename="D:\Desktop\cb-icons\g2354.png"
       inkscape:export-xdpi="14.86"
       inkscape:export-ydpi="14.86" />
    <path
       d="M 376.53086,287.97419 L 471.23266,236.06357 L 343.5606,206.60079 L 324.62024,215.72022 L 309.88885,216.42172 L 246.05282,196.77986 L 181.5153,215.72022 L 376.53086,287.97419 z "
       id="path13600"
       style="fill:#d1ae8b;fill-opacity:1;fill-rule:evenodd;stroke:none;stroke-width:1pt;stroke-linecap:butt;stroke-linejoin:miter;stroke-opacity:1"
       inkscape:export-filename="D:\Desktop\cb-icons\g2354.png"
       inkscape:export-xdpi="14.86"
       inkscape:export-ydpi="14.86" />
    <path
       d="M 234.12741,191.16791 L 309.88885,215.72022 L 324.62024,215.01873 L 344.2621,206.60079 L 470.53117,236.06357 L 446.68034,249.39197 L 438.26241,255.00393 L 446.68034,256.40692 L 516.12833,240.27254 L 295.85896,191.8694 L 234.12741,191.16791 z "
       id="path13601"
       style="fill:#d1ae8b;fill-opacity:1;fill-rule:evenodd;stroke:none;stroke-width:1pt;stroke-linecap:butt;stroke-linejoin:miter;stroke-opacity:1"
       inkscape:export-filename="D:\Desktop\cb-icons\g2354.png"
       inkscape:export-xdpi="14.86"
       inkscape:export-ydpi="14.86" />
    <path
       d="M 249.5603,198.18285 L 236.93339,202.39182 L 309.88885,222.03368 L 323.91875,215.72022 L 311.29184,215.72022 L 249.5603,198.18285 z "
       id="path13602"
       style="fill:#000000;fill-opacity:0.5;fill-rule:evenodd;stroke:none;stroke-width:1pt;stroke-linecap:butt;stroke-linejoin:miter;stroke-opacity:1"
       inkscape:export-filename="D:\Desktop\cb-icons\g2354.png"
       inkscape:export-xdpi="14.86"
       inkscape:export-ydpi="14.86" />
    <path
       d="M 438.9639,255.00393 L 377.23236,287.2727 L 510.51637,241.67553 L 447.38184,258.51141 L 438.9639,255.00393 z "
       id="path14225"
       style="fill:#d1ae8b;fill-opacity:1;fill-rule:evenodd;stroke:none;stroke-width:1pt;stroke-linecap:butt;stroke-linejoin:miter;stroke-opacity:1"
       inkscape:export-filename="D:\Desktop\cb-icons\g2354.png"
       inkscape:export-xdpi="14.86"
       inkscape:export-ydpi="14.86" />
    <path
       d="M 441.76988,305.51156 L 468.42668,297.09362 L 470.53117,299.8996 L 467.02369,306.91455 L 444.57586,316.03398 L 440.36689,316.73548 L 437.56091,313.228 L 438.9639,309.01903 L 441.76988,305.51156 z "
       id="path14226"
       style="fill:#000000;fill-opacity:1;fill-rule:evenodd;stroke:none;stroke-width:1pt;stroke-linecap:butt;stroke-linejoin:miter;stroke-opacity:1"
       inkscape:export-filename="D:\Desktop\cb-icons\g2354.png"
       inkscape:export-xdpi="14.86"
       inkscape:export-ydpi="14.86" />
    <text
       xml:space="preserve"
       style="font-size:74.42958832px;font-style:normal;font-variant:normal;font-weight:normal;font-stretch:normal;text-align:start;line-height:100%;writing-mode:lr-tb;text-anchor:start;opacity:0.15;fill:#623500;fill-opacity:1;stroke:none;stroke-width:1px;stroke-linecap:butt;stroke-linejoin:miter;stroke-opacity:1;font-family:Arial"
       x="202.10071"
       y="210.12869"
       id="text1307"
       sodipodi:linespacing="100%"
       transform="matrix(1,0.536386,0,1,0,0)"
       inkscape:export-filename="D:\Desktop\cb-icons\g2354.png"
       inkscape:export-xdpi="14.86"
       inkscape:export-ydpi="14.86"><tspan
         sodipodi:role="line"
         id="tspan1309"
         x="202.10071"
         y="210.12869"
         style="font-size:74.42958832px;font-style:normal;font-variant:normal;font-weight:normal;font-stretch:normal;text-align:start;line-height:100%;writing-mode:lr-tb;text-anchor:start;fill:#623500;fill-opacity:1;font-family:Stencil Export">DEV</tspan></text>
    <path
       d="M 377.23236,395.3029 L 384.9488,479.48228 L 439.6654,453.52697 L 376.53086,494.21367 L 377.23236,395.3029 z "
       id="path15480"
       style="fill:#000000;fill-opacity:0.19062494;fill-rule:evenodd;stroke:none;stroke-width:1pt;stroke-linecap:butt;stroke-linejoin:miter;stroke-opacity:1"
       inkscape:export-filename="D:\Desktop\cb-icons\g2354.png"
       inkscape:export-xdpi="14.86"
       inkscape:export-ydpi="14.86" />
    <path
       d="M 438.9639,256.05617 L 377.23236,288.32494 L 510.51637,242.72777 L 447.38184,259.56365 L 438.9639,256.05617 z "
       id="path15481"
       style="fill:#000000;fill-opacity:0.634375;fill-rule:evenodd;stroke:none;stroke-width:1pt;stroke-linecap:butt;stroke-linejoin:miter;stroke-opacity:1"
       inkscape:export-filename="D:\Desktop\cb-icons\g2354.png"
       inkscape:export-xdpi="14.86"
       inkscape:export-ydpi="14.86" />
    <path
       d="M 236.93339,191.51865 L 312.69483,216.07097 L 327.42622,215.36948 L 347.06809,206.95154 L 473.33716,236.41432 L 449.48633,249.74272 L 441.0684,255.35468 L 449.48633,256.75767 L 518.93432,240.62329 L 298.66494,192.22015 L 236.93339,191.51865 z "
       id="path15482"
       style="fill:#000000;fill-opacity:0.20312494;fill-rule:evenodd;stroke:none;stroke-width:1pt;stroke-linecap:butt;stroke-linejoin:miter;stroke-opacity:1"
       inkscape:export-filename="D:\Desktop\cb-icons\g2354.png"
       inkscape:export-xdpi="14.86"
       inkscape:export-ydpi="14.86" />
    <path
       d="M 459.30725,245.8845 L 473.33714,251.49646 L 449.48632,257.80991 L 441.06838,254.30244 L 459.30725,245.8845 z "
       id="path14224"
       style="fill:#000000;fill-opacity:0.34375;fill-rule:evenodd;stroke:none;stroke-width:1pt;stroke-linecap:butt;stroke-linejoin:miter;stroke-opacity:1"
       inkscape:export-filename="D:\Desktop\cb-icons\g2354.png"
       inkscape:export-xdpi="14.86"
       inkscape:export-ydpi="14.86" />
    <g
       id="g2420"
       transform="translate(139.3401,-281.8202)"
       style="opacity:0.8"
       inkscape:export-filename="D:\Desktop\cb-icons\g2354.png"
       inkscape:export-xdpi="14.86"
       inkscape:export-ydpi="14.86">
      <path
         style="opacity:1;fill:none;fill-opacity:0.75;fill-rule:evenodd;stroke:#000000;stroke-width:2.5;stroke-linecap:butt;stroke-linejoin:miter;stroke-miterlimit:4;stroke-dasharray:none;stroke-opacity:1"
         d="M 238.46241,699.07329 C 238.46241,699.07329 318.7959,693.77417 324.56549,693.36159 C 330.33509,692.949 408.19292,713.5393 448.38759,719.31547"
         id="path2381"
         sodipodi:nodetypes="csc" />
      <path
         style="opacity:1;fill:none;fill-opacity:0.75;fill-rule:evenodd;stroke:#000000;stroke-width:2.5;stroke-linecap:butt;stroke-linejoin:miter;stroke-miterlimit:4;stroke-dasharray:none;stroke-opacity:1"
         d="M 299.36973,592.8331 L 324.61811,693.7097 L 325.55486,797.0618"
         id="path2383" />
      <path
         style="opacity:1;fill:none;fill-opacity:0.75;fill-rule:evenodd;stroke:#000000;stroke-width:2.5;stroke-linecap:butt;stroke-linejoin:miter;stroke-miterlimit:4;stroke-dasharray:none;stroke-opacity:1"
         d="M 391.65535,798.00239 L 324.47442,693.29712 L 251.95353,765.70548"
         id="path2385"
         sodipodi:nodetypes="ccc" />
      <path
         style="opacity:1;fill:none;fill-opacity:0.75;fill-rule:evenodd;stroke:#000000;stroke-width:2.5;stroke-linecap:butt;stroke-linejoin:miter;stroke-miterlimit:4;stroke-dasharray:none;stroke-opacity:1"
         d="M 383.45669,608.16546 L 324.88567,693.3358"
         id="path2387"
         sodipodi:nodetypes="cc" />
      <path
         style="opacity:1;fill:none;fill-opacity:0.75;fill-rule:evenodd;stroke:#000000;stroke-width:2.5;stroke-linecap:butt;stroke-linejoin:miter;stroke-miterlimit:4;stroke-dasharray:none;stroke-opacity:1"
         d="M 321.50902,681.02277 C 321.50902,681.02277 329.43071,682.73045 331.57782,682.82782 C 332.71509,682.87939 335.2365,693.04669 339.50636,696.13363 C 340.07912,696.54772 333.44112,707.58281 333.44112,707.58281 L 324.70698,710.88348 L 314.89989,702.73496 L 312.93835,694.07071 C 312.93835,694.07071 319.76349,686.07691 321.50902,681.02277 z "
         id="path2389"
         sodipodi:nodetypes="cssccccc" />
      <path
         style="opacity:1;fill:none;fill-opacity:0.75;fill-rule:evenodd;stroke:#000000;stroke-width:2.5;stroke-linecap:butt;stroke-linejoin:miter;stroke-miterlimit:4;stroke-dasharray:none;stroke-opacity:1"
         d="M 319.6829,673.59627 C 319.6829,673.59627 329.48195,677.09117 335.41512,677.41266 C 335.76192,677.43146 337.85596,685.90726 347.42102,697.93868 C 347.42102,697.93869 340.31011,707.84068 338.05376,714.33886 L 324.85346,720.21817 L 308.01119,709.6973 L 305.55422,694.63801 C 305.55422,694.63801 316.46181,682.05423 319.6829,673.59627 z "
         id="path2391"
         sodipodi:nodetypes="cssccccc" />
      <path
         style="opacity:1;fill:none;fill-opacity:0.75;fill-rule:evenodd;stroke:#000000;stroke-width:2.5;stroke-linecap:butt;stroke-linejoin:miter;stroke-miterlimit:4;stroke-dasharray:none;stroke-opacity:1"
         d="M 317.50387,665.03516 C 317.50387,665.03516 324.57253,669.32779 339.36099,670.91448 C 339.38557,670.91712 339.89397,671.29624 340.20864,672.33444 C 343.8533,684.35904 355.6578,700.0016 355.6578,700.0016 C 352.10193,702.88968 342.72679,722.17795 342.72679,722.17795 C 339.77016,722.17795 325.03036,728.3667 325.03036,728.3667 C 325.03036,728.3667 306.48986,716.60807 301.55001,715.88605 C 301.55001,715.88605 299.95238,700.38357 298.16697,695.25689 C 298.02327,694.84431 313.05516,681.12591 317.50387,665.03516 z "
         id="path2393"
         sodipodi:nodetypes="cssccccsc" />
      <path
         style="opacity:1;fill:none;fill-opacity:0.75;fill-rule:evenodd;stroke:#000000;stroke-width:2.5;stroke-linecap:butt;stroke-linejoin:miter;stroke-miterlimit:4;stroke-dasharray:none;stroke-opacity:1"
         d="M 315.3651,657.19608 C 315.3651,657.19608 333.87427,665.24159 343.98264,664.41629 C 344.00393,664.41455 344.62169,664.82635 344.92142,666.04149 C 348.22539,679.43642 364.49222,701.96137 364.49222,701.96137 C 353.41095,711.86336 347.58141,729.81074 347.58141,729.81074 C 343.80134,730.8422 325.18039,739.71273 325.18039,739.71273 C 322.13452,737.03094 295.15438,722.38424 295.15438,722.38424 C 295.04533,704.84945 291.89682,695.56633 291.89682,695.56633 C 291.89682,695.56633 309.40925,677.20637 315.3651,657.19608 z "
         id="path2395"
         sodipodi:nodetypes="csscccccc" />
      <path
         style="opacity:1;fill:none;fill-opacity:0.75;fill-rule:evenodd;stroke:#000000;stroke-width:2.5;stroke-linecap:butt;stroke-linejoin:miter;stroke-miterlimit:4;stroke-dasharray:none;stroke-opacity:1"
         d="M 313.24291,647.70667 C 313.24291,647.70667 334.25608,663.42042 349.55643,656.16463 C 351.29647,655.33946 352.34027,679.68187 372.81349,704.02428 C 372.81349,704.02428 361.81748,718.05211 353.90214,739.71273 C 353.90214,739.71273 334.47747,742.39452 325.4694,748.78956 C 325.4694,748.78956 298.44183,729.39815 288.13581,729.39815 C 288.13581,729.39815 288.48624,707.11865 284.81347,695.36003 C 284.81347,695.36003 310.54766,666.89179 313.24291,647.70667 z "
         id="path2397"
         sodipodi:nodetypes="cscccccc" />
      <path
         style="opacity:1;fill:none;fill-opacity:0.75;fill-rule:evenodd;stroke:#000000;stroke-width:2.5;stroke-linecap:butt;stroke-linejoin:miter;stroke-miterlimit:4;stroke-dasharray:none;stroke-opacity:1"
         d="M 310.41489,635.94805 C 310.41489,635.94805 332.31887,653.48144 357.52867,644.6123 C 357.54643,644.60606 358.24543,645.12666 358.40129,646.56241 C 360.94832,670.02703 383.50006,706.0872 383.50006,706.0872 C 371.03718,713.71999 358.95965,748.17069 358.95965,748.17069 C 350.11891,746.31406 324.98942,756.62864 324.98942,756.62864 C 311.09902,743.42598 282.36305,735.38061 282.36305,735.38061 C 283.12092,723.00311 276.48435,696.1852 276.48435,696.1852 C 276.48435,696.1852 307.34547,664.00371 310.41489,635.94805 z "
         id="path2399"
         sodipodi:nodetypes="csscccccc" />
      <path
         style="opacity:1;fill:none;fill-opacity:0.75;fill-rule:evenodd;stroke:#000000;stroke-width:2.5;stroke-linecap:butt;stroke-linejoin:miter;stroke-miterlimit:4;stroke-dasharray:none;stroke-opacity:1"
         d="M 307.45749,625.63347 C 307.45749,625.63347 308.52762,626.1157 308.87058,626.32989 C 338.29838,646.17089 366.27777,631.40963 366.27777,631.40963 C 365.94003,675.55604 395.12455,709.38787 395.12455,709.38787 C 369.30348,725.47861 365.31827,757.45381 365.31827,757.45381 C 353.58008,756.00977 325.50738,770.24389 325.50738,770.24389 C 299.28032,740.5379 272.80236,745.28261 272.80236,745.28261 C 272.80388,731.46107 263.60615,696.80408 263.60615,696.80408 C 263.60615,696.80408 298.53639,666.47921 307.45749,625.63347 z "
         id="path2401"
         sodipodi:nodetypes="ccccccccc" />
      <path
         style="opacity:1;fill:none;fill-opacity:0.75;fill-rule:evenodd;stroke:#000000;stroke-width:2.5;stroke-linecap:butt;stroke-linejoin:miter;stroke-miterlimit:4;stroke-dasharray:none;stroke-opacity:1"
         d="M 304.39572,612.84339 C 304.39572,612.84339 332.11773,638.09052 376.98639,616.55663 C 377.0165,616.54218 377.92473,616.98905 377.90457,618.45514 C 376.89102,692.12161 419.64357,714.56238 419.63199,714.75145 C 378.92076,731.20896 373.4643,770.65648 373.4643,770.65648 C 343.73674,767.76839 325.29587,790.25418 325.29587,790.25418 C 302.15098,754.35944 260.20527,757.8664 260.20527,757.8664 C 264.25052,730.42961 249.45213,696.1852 249.45213,696.1852 C 249.45213,696.1852 287.25764,666.47921 304.39572,612.84339 z "
         id="path2403"
         sodipodi:nodetypes="csscccccc" />
      <path
         style="opacity:1;fill:none;fill-opacity:0.75;fill-rule:evenodd;stroke:#000000;stroke-width:2.5;stroke-linecap:butt;stroke-linejoin:miter;stroke-miterlimit:4;stroke-dasharray:none;stroke-opacity:1"
         d="M 359.94279,561.17328 C 359.94279,561.17328 434.87981,724.92454 512.59228,798.75138"
         id="path2405"
         sodipodi:nodetypes="cs" />
    </g>
    <g
       id="g2476"
       transform="translate(407.1187,-284.1752)"
       style="opacity:1"
       inkscape:export-filename="D:\Desktop\cb-icons\g2354.png"
       inkscape:export-xdpi="14.86"
       inkscape:export-ydpi="14.86">
      <path
         sodipodi:nodetypes="csc"
         id="path2437"
         d="M -29.70879,700.64332 C -29.70879,700.64332 50.6247,695.3442 56.39429,694.93162 C 62.16389,694.51903 140.02172,715.10933 180.21639,720.8855"
         style="fill:none;fill-opacity:0.75;fill-rule:evenodd;stroke:#ffffff;stroke-width:2.5;stroke-linecap:butt;stroke-linejoin:miter;stroke-miterlimit:4;stroke-dasharray:none;stroke-opacity:1" />
      <path
         id="path2439"
         d="M 31.19853,594.40313 L 56.44691,695.27973 L 57.38366,798.63183"
         style="fill:none;fill-opacity:0.75;fill-rule:evenodd;stroke:#ffffff;stroke-width:2.5;stroke-linecap:butt;stroke-linejoin:miter;stroke-miterlimit:4;stroke-dasharray:none;stroke-opacity:1" />
      <path
         sodipodi:nodetypes="ccc"
         id="path2441"
         d="M 123.48415,799.57242 L 56.30322,694.86715 L -16.21767,767.27551"
         style="fill:none;fill-opacity:0.75;fill-rule:evenodd;stroke:#ffffff;stroke-width:2.5;stroke-linecap:butt;stroke-linejoin:miter;stroke-miterlimit:4;stroke-dasharray:none;stroke-opacity:1" />
      <path
         sodipodi:nodetypes="cc"
         id="path2443"
         d="M 115.28549,609.73549 L 56.71447,694.90583"
         style="fill:none;fill-opacity:0.75;fill-rule:evenodd;stroke:#ffffff;stroke-width:2.5;stroke-linecap:butt;stroke-linejoin:miter;stroke-miterlimit:4;stroke-dasharray:none;stroke-opacity:1" />
      <path
         sodipodi:nodetypes="cssccccc"
         id="path2445"
         d="M 53.33782,682.5928 C 53.33782,682.5928 61.25951,684.30048 63.40662,684.39785 C 64.54389,684.44942 67.0653,694.61672 71.33516,697.70366 C 71.90792,698.11775 65.26992,709.15284 65.26992,709.15284 L 56.53578,712.45351 L 46.72869,704.30499 L 44.76715,695.64074 C 44.76715,695.64074 51.59229,687.64694 53.33782,682.5928 z "
         style="fill:none;fill-opacity:0.75;fill-rule:evenodd;stroke:#ffffff;stroke-width:2.5;stroke-linecap:butt;stroke-linejoin:miter;stroke-miterlimit:4;stroke-dasharray:none;stroke-opacity:1" />
      <path
         sodipodi:nodetypes="cssccccc"
         id="path2447"
         d="M 51.5117,675.1663 C 51.5117,675.1663 61.31075,678.6612 67.24392,678.98269 C 67.59072,679.00149 69.68476,687.47729 79.24982,699.50871 C 79.24982,699.50872 72.13891,709.41071 69.88256,715.90889 L 56.68226,721.7882 L 39.83999,711.26733 L 37.38302,696.20804 C 37.38302,696.20804 48.29061,683.62426 51.5117,675.1663 z "
         style="fill:none;fill-opacity:0.75;fill-rule:evenodd;stroke:#ffffff;stroke-width:2.5;stroke-linecap:butt;stroke-linejoin:miter;stroke-miterlimit:4;stroke-dasharray:none;stroke-opacity:1" />
      <path
         sodipodi:nodetypes="cssccccsc"
         id="path2449"
         d="M 49.33267,666.60519 C 49.33267,666.60519 56.40133,670.89782 71.18979,672.48451 C 71.21437,672.48715 71.72277,672.86627 72.03744,673.90447 C 75.6821,685.92907 87.4866,701.57163 87.4866,701.57163 C 83.93073,704.45971 74.55559,723.74798 74.55559,723.74798 C 71.59896,723.74798 56.85916,729.93673 56.85916,729.93673 C 56.85916,729.93673 38.31866,718.1781 33.37881,717.45608 C 33.37881,717.45608 31.78118,701.9536 29.99577,696.82692 C 29.85207,696.41434 44.88396,682.69594 49.33267,666.60519 z "
         style="fill:none;fill-opacity:0.75;fill-rule:evenodd;stroke:#ffffff;stroke-width:2.5;stroke-linecap:butt;stroke-linejoin:miter;stroke-miterlimit:4;stroke-dasharray:none;stroke-opacity:1" />
      <path
         sodipodi:nodetypes="csscccccc"
         id="path2451"
         d="M 47.1939,658.76611 C 47.1939,658.76611 65.70307,666.81162 75.81144,665.98632 C 75.83273,665.98458 76.45049,666.39638 76.75022,667.61152 C 80.05419,681.00645 96.32102,703.5314 96.32102,703.5314 C 85.23975,713.43339 79.41021,731.38077 79.41021,731.38077 C 75.63014,732.41223 57.00919,741.28276 57.00919,741.28276 C 53.96332,738.60097 26.98318,723.95427 26.98318,723.95427 C 26.87413,706.41948 23.72562,697.13636 23.72562,697.13636 C 23.72562,697.13636 41.23805,678.7764 47.1939,658.76611 z "
         style="fill:none;fill-opacity:0.75;fill-rule:evenodd;stroke:#ffffff;stroke-width:2.5;stroke-linecap:butt;stroke-linejoin:miter;stroke-miterlimit:4;stroke-dasharray:none;stroke-opacity:1" />
      <path
         sodipodi:nodetypes="cscccccc"
         id="path2453"
         d="M 45.07171,649.2767 C 45.07171,649.2767 66.08488,664.99045 81.38523,657.73466 C 83.12527,656.90949 84.16907,681.2519 104.64229,705.59431 C 104.64229,705.59431 93.64628,719.62214 85.73094,741.28276 C 85.73094,741.28276 66.30627,743.96455 57.2982,750.35959 C 57.2982,750.35959 30.27063,730.96818 19.96461,730.96818 C 19.96461,730.96818 20.31504,708.68868 16.64227,696.93006 C 16.64227,696.93006 42.37646,668.46182 45.07171,649.2767 z "
         style="fill:none;fill-opacity:0.75;fill-rule:evenodd;stroke:#ffffff;stroke-width:2.5;stroke-linecap:butt;stroke-linejoin:miter;stroke-miterlimit:4;stroke-dasharray:none;stroke-opacity:1" />
      <path
         sodipodi:nodetypes="csscccccc"
         id="path2455"
         d="M 42.24369,637.51808 C 42.24369,637.51808 64.14767,655.05147 89.35747,646.18233 C 89.37523,646.17609 90.07423,646.69669 90.23009,648.13244 C 92.77712,671.59706 115.32886,707.65723 115.32886,707.65723 C 102.86598,715.29002 90.78845,749.74072 90.78845,749.74072 C 81.94771,747.88409 56.81822,758.19867 56.81822,758.19867 C 42.92782,744.99601 14.19185,736.95064 14.19185,736.95064 C 14.94972,724.57314 8.31315,697.75523 8.31315,697.75523 C 8.31315,697.75523 39.17427,665.57374 42.24369,637.51808 z "
         style="fill:none;fill-opacity:0.75;fill-rule:evenodd;stroke:#ffffff;stroke-width:2.5;stroke-linecap:butt;stroke-linejoin:miter;stroke-miterlimit:4;stroke-dasharray:none;stroke-opacity:1" />
      <path
         sodipodi:nodetypes="ccccccccc"
         id="path2457"
         d="M 39.28629,627.2035 C 39.28629,627.2035 40.35642,627.68573 40.69938,627.89992 C 70.12718,647.74092 98.10657,632.97966 98.10657,632.97966 C 97.76883,677.12607 126.95335,710.9579 126.95335,710.9579 C 101.13228,727.04864 97.14707,759.02384 97.14707,759.02384 C 85.40888,757.5798 57.33618,771.81392 57.33618,771.81392 C 31.10912,742.10793 4.63116,746.85264 4.63116,746.85264 C 4.63268,733.0311 -4.56505,698.37411 -4.56505,698.37411 C -4.56505,698.37411 30.36519,668.04924 39.28629,627.2035 z "
         style="fill:none;fill-opacity:0.75;fill-rule:evenodd;stroke:#ffffff;stroke-width:2.5;stroke-linecap:butt;stroke-linejoin:miter;stroke-miterlimit:4;stroke-dasharray:none;stroke-opacity:1" />
      <path
         sodipodi:nodetypes="csscccccc"
         id="path2459"
         d="M 36.22452,614.41342 C 36.22452,614.41342 63.94653,639.66055 108.81519,618.12666 C 108.8453,618.11221 109.75353,618.55908 109.73337,620.02517 C 108.71982,693.69164 151.47237,716.13241 151.46079,716.32148 C 110.74956,732.77899 105.2931,772.22651 105.2931,772.22651 C 75.56554,769.33842 57.12467,791.82421 57.12467,791.82421 C 33.97978,755.92947 -7.96593,759.43643 -7.96593,759.43643 C -3.92068,731.99964 -18.71907,697.75523 -18.71907,697.75523 C -18.71907,697.75523 19.08644,668.04924 36.22452,614.41342 z "
         style="fill:none;fill-opacity:0.75;fill-rule:evenodd;stroke:#ffffff;stroke-width:2.5;stroke-linecap:butt;stroke-linejoin:miter;stroke-miterlimit:4;stroke-dasharray:none;stroke-opacity:1" />
      <path
         sodipodi:nodetypes="cs"
         id="path2461"
         d="M 91.77159,562.74331 C 91.77159,562.74331 166.70861,726.49457 244.42108,800.32141"
         style="fill:none;fill-opacity:0.75;fill-rule:evenodd;stroke:#ffffff;stroke-width:2.5;stroke-linecap:butt;stroke-linejoin:miter;stroke-miterlimit:4;stroke-dasharray:none;stroke-opacity:1" />
    </g>
  </g>
</svg>
