<?xml version="1.0" encoding="UTF-8" standalone="no"?>
<!-- Created with Inkscape (http://www.inkscape.org/) -->
<svg
   xmlns:dc="http://purl.org/dc/elements/1.1/"
   xmlns:cc="http://web.resource.org/cc/"
   xmlns:rdf="http://www.w3.org/1999/02/22-rdf-syntax-ns#"
   xmlns:svg="http://www.w3.org/2000/svg"
   xmlns="http://www.w3.org/2000/svg"
   xmlns:xlink="http://www.w3.org/1999/xlink"
   xmlns:sodipodi="http://inkscape.sourceforge.net/DTD/sodipodi-0.dtd"
   xmlns:inkscape="http://www.inkscape.org/namespaces/inkscape"
   width="744.09448819"
   height="1052.3622047"
   id="svg2"
   sodipodi:version="0.32"
   inkscape:version="0.43"
   sodipodi:docbase="D:\Desktop"
   sodipodi:docname="gear.svg">
  <defs
     id="defs4">
    <linearGradient
       inkscape:collect="always"
       id="linearGradient2192">
      <stop
         style="stop-color:#0000ff;stop-opacity:1;"
         offset="0"
         id="stop2194" />
      <stop
         style="stop-color:#0000ff;stop-opacity:0;"
         offset="1"
         id="stop2196" />
    </linearGradient>
    <linearGradient
       id="linearGradient1311">
      <stop
         style="stop-color:#000081;stop-opacity:1;"
         offset="0"
         id="stop1313" />
      <stop
         style="stop-color:#000081;stop-opacity:0;"
         offset="1"
         id="stop1315" />
    </linearGradient>
    <linearGradient
       inkscape:collect="always"
       id="linearGradient3082">
      <stop
         style="stop-color:#ffffff;stop-opacity:1;"
         offset="0"
         id="stop3084" />
      <stop
         style="stop-color:#ffffff;stop-opacity:0;"
         offset="1"
         id="stop3086" />
    </linearGradient>
    <linearGradient
       inkscape:collect="always"
       xlink:href="#linearGradient3082"
       id="linearGradient3088"
       x1="565.21039"
       y1="279.90799"
       x2="940.52209"
       y2="929.96698"
       gradientUnits="userSpaceOnUse" />
    <linearGradient
       inkscape:collect="always"
       xlink:href="#linearGradient2192"
       id="linearGradient2202"
       x1="890.33142"
       y1="799.26263"
       x2="478.34985"
       y2="207.3618"
       gradientUnits="userSpaceOnUse" />
  </defs>
  <sodipodi:namedview
     id="base"
     pagecolor="#ffffff"
     bordercolor="#666666"
     borderopacity="1.0"
     inkscape:pageopacity="0.0"
     inkscape:pageshadow="2"
     inkscape:zoom="0.15923274"
     inkscape:cx="801.2565"
     inkscape:cy="623.71009"
     inkscape:document-units="px"
     inkscape:current-layer="layer1"
     inkscape:window-width="1280"
     inkscape:window-height="924"
     inkscape:window-x="-4"
     inkscape:window-y="-4" />
   <g
     inkscape:label="Layer 1"
     inkscape:groupmode="layer"
     id="layer1">
    <path
       style="opacity:1;fill:#0000ff;fill-opacity:1;stroke:#000081;stroke-width:10;stroke-linecap:butt;stroke-linejoin:round;stroke-miterlimit:4;stroke-dasharray:none;stroke-dashoffset:0;stroke-opacity:1"
       d="M -594.1183,99.911197 C -598.17246,99.987427 -602.67773,100.62728 -607.71205,101.9112 C -675.54294,119.21032 -602.64051,193.62285 -661.8058,231.0362 C -720.97109,268.44954 -756.94137,170.70218 -801.64955,224.56745 C -846.35777,278.43273 -743.64983,295.8042 -769.52455,360.8487 C -795.39927,425.89321 -881.98487,367.92946 -886.49327,437.7862 C -891.00177,507.64293 -797.69866,461.33029 -780.39955,529.1612 C -763.10043,596.99209 -867.18787,600.99591 -829.77457,660.1612 C -792.36121,719.32649 -744.10857,627.01553 -690.2433,671.7237 C -636.37802,716.43188 -718.22531,780.84901 -653.1808,806.7237 C -588.13629,832.59842 -603.38128,729.55899 -533.52455,734.06745 C -463.66782,738.57591 -492.01171,838.80407 -424.18079,821.50495 C -356.3499,804.20583 -429.25235,729.79329 -370.08704,692.37995 C -310.92175,654.96661 -274.95149,752.71397 -230.2433,698.8487 C -185.53512,644.98342 -288.243,627.64319 -262.36829,562.5987 C -236.49358,497.55419 -149.90804,555.48671 -145.39955,485.62995 C -140.89109,415.77322 -234.19418,462.08586 -251.4933,394.25495 C -268.79241,326.42406 -164.70499,322.42024 -202.1183,263.25495 C -239.53164,204.08966 -287.78427,296.43187 -341.64954,251.7237 C -395.51482,207.01552 -313.66752,142.56717 -378.71204,116.69245 C -443.75655,90.817727 -428.51157,193.88841 -498.3683,189.37995 C -563.04035,185.2061 -543.54796,98.960367 -594.1183,99.911197 z M -518.21205,277.12995 C -517.39466,277.11987 -516.56314,277.12995 -515.7433,277.12995 C -410.80396,277.12994 -325.64954,359.9689 -325.64954,462.0362 C -325.64954,564.10348 -410.80396,646.94245 -515.7433,646.94245 C -620.68263,646.94242 -705.8683,564.1035 -705.8683,462.0362 C -705.86829,360.76628 -622.02107,278.41032 -518.21205,277.12995 z "
       id="path1307" />
    <path
       id="path2187"
       d="M 621.08405,158.00227 C 617.02989,158.0785 612.52462,158.71835 607.4903,160.00227 C 539.65941,177.30139 612.56184,251.71392 553.39655,289.12727 C 494.23126,326.54061 458.26098,228.79325 413.5528,282.65852 C 368.84462,336.5238 471.55252,353.89527 445.6778,418.93977 C 419.80308,483.98428 333.21751,426.02053 328.70905,495.87727 C 324.20059,565.734 417.50369,519.42136 434.8028,587.25227 C 452.10192,655.08316 348.01447,659.08698 385.4278,718.25227 C 422.84114,777.41756 471.09378,685.1066 524.95905,729.81477 C 578.82433,774.52295 496.97704,838.94008 562.02155,864.81477 C 627.06606,890.68949 611.82107,787.65006 681.6778,792.15852 C 751.53453,796.66698 723.19064,896.89514 791.02155,879.59602 C 858.85244,862.2969 785.94999,787.88436 845.1153,750.47102 C 904.28059,713.05768 940.25085,810.80504 984.95902,756.93977 C 1029.6672,703.07449 926.95934,685.73426 952.83402,620.68977 C 978.70882,555.64526 1065.2943,613.57778 1069.8028,543.72102 C 1074.3112,473.86429 981.00822,520.17693 963.70902,452.34602 C 946.40993,384.51513 1050.4973,380.51131 1013.084,321.34602 C 975.67072,262.18073 927.41807,354.52294 873.5528,309.81477 C 819.68752,265.10659 901.53482,200.65824 836.4903,174.78352 C 771.44579,148.9088 786.69077,251.97948 716.83405,247.47102 C 652.162,243.29717 671.65439,157.05144 621.08405,158.00227 z M 696.9903,335.22102 C 697.80769,335.21094 698.63921,335.22102 699.45905,335.22102 C 804.39838,335.22101 889.5528,418.05997 889.5528,520.12727 C 889.5528,622.19455 804.39838,705.03352 699.45905,705.03352 C 594.51972,705.03349 509.33405,622.19457 509.33405,520.12727 C 509.33406,418.85735 593.18128,336.50139 696.9903,335.22102 z "
       style="opacity:1;fill:url(#linearGradient2202);fill-opacity:1.0;stroke:#000000;stroke-width:10;stroke-linecap:butt;stroke-linejoin:round;stroke-miterlimit:4;stroke-dasharray:none;stroke-dashoffset:0;stroke-opacity:1"
       inkscape:export-filename="d:\desktop\compiler.png"
       inkscape:export-xdpi="9.2200003"
       inkscape:export-ydpi="9.2200003" />
    <path
       style="opacity:1;fill:none;fill-opacity:1.0;stroke:url(#linearGradient3088);stroke-width:15;stroke-linecap:butt;stroke-linejoin:round;stroke-miterlimit:4;stroke-dasharray:none;stroke-dashoffset:0;stroke-opacity:1"
       d="M 621.34375,168.03125 C 608.49502,168.63455 592.21747,172.99439 587.90625,186.84375 C 581.9734,214.46584 595.88992,244.1617 582.96875,270.5625 C 569.06878,302.20546 526.88655,317.57566 496.1875,301.125 C 477.80036,293.39007 462.18376,277.33363 441.53125,276.21875 C 426.39613,278.61929 415.06586,293.03706 412.25,307.46875 C 411.81143,322.63165 425.03533,333.24068 433.65524,344.11197 C 448.61333,360.40542 462.5864,381.23927 459.65625,404.4375 C 457.15274,433.7192 432.90423,459.81849 403.39087,462.95872 C 384.25389,466.8542 361.96781,462.82146 345.875,475.90625 C 336.67005,487.2718 336.32816,504.40683 342.5625,517.15625 C 352.93757,530.76063 371.74462,530.70356 386.8125,535.03125 C 407.6917,539.69152 429.53886,550.07042 439.22552,570.31721 C 452.53346,595.18512 447.57118,628.58892 426.47393,647.66856 C 413.41935,661.9047 393.64599,671.63876 387.71875,691.125 C 386.28543,705.9266 396.28477,720.34632 408.875,727.25 C 425.49427,732.3287 441.21311,720.87553 456.25,715.40625 C 475.36034,707.34474 498.4714,703.01049 517.625,713 C 543.85147,725.24814 560.00089,756.25254 553.58659,784.70998 C 551.15083,803.55268 541.40529,822.60996 547.90625,841.625 C 555.56412,854.0686 571.48302,859.86418 585.5625,858.5 C 601.24377,853.99927 607.41197,836.94303 615.40625,824.53125 C 626.50072,805.45943 642.78269,786.40614 665.78125,782.90625 C 694.05063,777.3714 724.91186,792.51868 736.69188,819.00599 C 746.22352,835.87637 749.24532,857.80979 766.28125,869.1875 C 780.02631,874.88759 797.18267,869.79448 807.3125,859.34375 C 816.70616,844.93323 810.61086,827.00801 810.125,811.125 C 808.23394,789.33285 812.09664,764.83935 829.40625,749.75 C 849.10987,730.75851 881.25869,726.07894 905.18826,739.70236 C 922.7943,747.8107 938.37699,763.79916 958.8125,763.125 C 973.1687,759.47492 983.84771,745.8325 986.28125,731.53125 C 985.82535,714.30847 970.2559,703.17577 960.59921,690.74074 C 946.28426,674.40724 934.77011,652.56895 939.50815,630.23236 C 944.08119,602.55187 968.06323,579.1479 996.17344,576.48914 C 1014.7498,572.9315 1036.3923,576.38378 1052.0313,564.28125 C 1061.7683,553.37878 1062.0337,536.3195 1056.625,523.5 C 1047.556,509.72445 1029.1335,509.12206 1014.8381,505.30639 C 993.40117,500.70784 970.49156,491.25017 960,470.625 C 945.79315,445.58605 950.63407,411.07824 972.23018,391.69106 C 985.35361,377.46376 1005.2816,367.7277 1010.8438,348 C 1011.9146,333.04327 1001.8352,318.63546 988.84375,312.09375 C 970.46043,307.56948 954.34082,320.56663 937.62734,326.19798 C 917.0988,334.12197 891.86962,335.77583 873.25,322.21875 C 850.50941,307.9656 839.03047,278.85866 845.25,252.84375 C 847.97642,234.73114 857.0755,215.8741 850.46875,197.75 C 842.68267,185.2952 826.29853,179.4449 812.34375,181.28125 C 796.46809,186.4343 790.50714,203.94496 782.1575,216.69175 C 771.27482,235.01861 755.20465,253.22093 732.9375,256.6875 C 705.0301,262.27619 674.20655,247.5537 662.26436,221.46959 C 652.54756,204.41763 649.29979,182.11377 632.3125,170.21875 C 628.91924,168.54188 625.11363,167.83606 621.34375,168.03125 z M 699.84375,325.15625 C 784.97395,324.01704 868.28317,383.03008 891.63908,465.50883 C 910.77414,528.80827 894.43714,601.84585 848.78125,649.9375 C 800.97343,702.26219 724.68279,726.56218 655.51315,710.36219 C 589.73142,696.06173 531.56227,647.37438 509.96875,583.03125 C 489.66547,525.36064 498.72045,458.04953 535.22891,408.75035 C 572.51473,356.54964 635.57119,324.28415 699.84375,325.15625 z "
       id="path2197"
       inkscape:export-filename="d:\desktop\compiler.png"
       inkscape:export-xdpi="6.9000001"
       inkscape:export-ydpi="6.9000001" />
  </g>
</svg>
