<?xml version="1.0" encoding="UTF-8" standalone="no"?>
<!-- Created with Sodipodi ("http://www.sodipodi.com/") -->
<svg
   xmlns:dc="http://purl.org/dc/elements/1.1/"
   xmlns:cc="http://web.resource.org/cc/"
   xmlns:rdf="http://www.w3.org/1999/02/22-rdf-syntax-ns#"
   xmlns:svg="http://www.w3.org/2000/svg"
   xmlns="http://www.w3.org/2000/svg"
   xmlns:xlink="http://www.w3.org/1999/xlink"
   xmlns:sodipodi="http://inkscape.sourceforge.net/DTD/sodipodi-0.dtd"
   xmlns:inkscape="http://www.inkscape.org/namespaces/inkscape"
   inkscape:version="0.43"
   sodipodi:docname="onekeytobindthem.svg"
   sodipodi:version="0.32"
   version="1.0"
   viewBox="0 0 550 270"
   id="svg2"
   width="210mm"
   height="297mm"
   sodipodi:docbase="D:\Desktop\cb-icons">
  <metadata
     id="metadata63">
    <rdf:RDF>
      <cc:Work
         rdf:about="">
        <dc:format>image/svg+xml</dc:format>
        <dc:type
           rdf:resource="http://purl.org/dc/dcmitype/StillImage" />
      </cc:Work>
    </rdf:RDF>
  </metadata>
  <sodipodi:namedview
     inkscape:window-height="924"
     inkscape:window-width="1280"
     inkscape:pageshadow="2"
     inkscape:pageopacity="0.0"
     borderopacity="1.0"
     bordercolor="#666666"
     pagecolor="#ffffff"
     id="base"
     inkscape:zoom="0.22804624"
     inkscape:cx="-1155.3429"
     inkscape:cy="939.17449"
     inkscape:window-x="-4"
     inkscape:window-y="-4"
     inkscape:current-layer="svg2" />
  <defs
     id="defs561">
    <linearGradient
       inkscape:collect="always"
       id="linearGradient3131">
      <stop
         style="stop-color:#000000;stop-opacity:1;"
         offset="0"
         id="stop3133" />
      <stop
         style="stop-color:#000000;stop-opacity:0;"
         offset="1"
         id="stop3135" />
    </linearGradient>
    <linearGradient
       id="linearGradient3107">
      <stop
         style="stop-color:#ffffff;stop-opacity:1;"
         offset="0"
         id="stop3109" />
      <stop
         style="stop-color:#ffffff;stop-opacity:0;"
         offset="1"
         id="stop3111" />
    </linearGradient>
    <linearGradient
       id="linearGradient3097">
      <stop
         style="stop-color:#fcffff;stop-opacity:1;"
         offset="0"
         id="stop3099" />
      <stop
         style="stop-color:#fcffff;stop-opacity:0;"
         offset="1"
         id="stop3101" />
    </linearGradient>
    <linearGradient
       id="linearGradient607">
      <stop
         id="stop608"
         offset="0.000000"
         style="stop-color:#cfcfcf;stop-opacity:1;" />
      <stop
         id="stop609"
         offset="1.000000"
         style="stop-color:#efefef;stop-opacity:1;" />
    </linearGradient>
    <linearGradient
       id="linearGradient565">
      <stop
         id="stop566"
         offset="0.000000"
         style="stop-color:#9d9d9f;stop-opacity:1;" />
      <stop
         id="stop567"
         offset="1.000000"
         style="stop-color:#e5e5e5;stop-opacity:1;" />
    </linearGradient>
    <radialGradient
       inkscape:collect="always"
       xlink:href="#linearGradient3097"
       id="radialGradient3125"
       gradientUnits="userSpaceOnUse"
       gradientTransform="matrix(0.477008,-0.327962,6.83155e-2,9.93622e-2,-155.3347,-264.6555)"
       cx="-1243.9821"
       cy="210.0928"
       fx="-1243.9821"
       fy="210.0928"
       r="276.32545" />
    <radialGradient
       inkscape:collect="always"
       xlink:href="#linearGradient3107"
       id="radialGradient3127"
       gradientUnits="userSpaceOnUse"
       gradientTransform="matrix(0.111655,0.137342,-0.573357,0.466124,-712.9035,101.9356)"
       cx="-1679.7844"
       cy="98.185669"
       fx="-1679.7844"
       fy="98.185669"
       r="250.52588" />
    <linearGradient
       inkscape:collect="always"
       xlink:href="#linearGradient3131"
       id="linearGradient3137"
       x1="-883.93469"
       y1="-42.988373"
       x2="-1294.4387"
       y2="288.19196"
       gradientUnits="userSpaceOnUse"
       gradientTransform="translate(319.2625,-85.89296)" />
    <radialGradient
       inkscape:collect="always"
       xlink:href="#linearGradient3107"
       id="radialGradient3261"
       gradientUnits="userSpaceOnUse"
       gradientTransform="matrix(8.22263e-2,0.101143,-0.422238,0.343269,-287.9138,433.3843)"
       cx="-1679.7844"
       cy="98.185669"
       fx="-1679.7844"
       fy="98.185669"
       r="250.52588" />
    <linearGradient
       inkscape:collect="always"
       xlink:href="#linearGradient565"
       id="linearGradient3263"
       gradientUnits="userSpaceOnUse"
       gradientTransform="matrix(1.26174,0,0,0.792556,-685.523,-158.8209)"
       spreadMethod="pad"
       x1="60.856329"
       y1="230.04285"
       x2="197.69645"
       y2="98.27066" />
    <linearGradient
       inkscape:collect="always"
       xlink:href="#linearGradient607"
       id="linearGradient3265"
       gradientUnits="userSpaceOnUse"
       gradientTransform="matrix(1.309333,0,0,0.763748,-685.523,-158.8209)"
       spreadMethod="pad"
       x1="88.575258"
       y1="228.30439"
       x2="173.60237"
       y2="124.08444" />
    <linearGradient
       inkscape:collect="always"
       xlink:href="#linearGradient607"
       id="linearGradient3267"
       gradientUnits="userSpaceOnUse"
       gradientTransform="matrix(1.309333,0,0,0.763748,-685.523,-158.8209)"
       x1="54.824171"
       y1="177.87538"
       x2="198.26669"
       y2="177.87538" />
    <linearGradient
       inkscape:collect="always"
       xlink:href="#linearGradient565"
       id="linearGradient3269"
       gradientUnits="userSpaceOnUse"
       gradientTransform="matrix(1.031808,3.55743e-17,-8.716215e-17,0.969173,-2042.942,43.39154)"
       spreadMethod="pad"
       x1="354.62043"
       y1="188.04511"
       x2="466.34124"
       y2="80.46193" />
    <linearGradient
       inkscape:collect="always"
       xlink:href="#linearGradient607"
       id="linearGradient3271"
       gradientUnits="userSpaceOnUse"
       gradientTransform="matrix(1.002789,3.45738e-17,-8.968446e-17,0.997219,-2042.942,43.39154)"
       spreadMethod="pad"
       x1="393.59709"
       y1="174.85308"
       x2="458.71749"
       y2="95.033303" />
    <linearGradient
       inkscape:collect="always"
       xlink:href="#linearGradient607"
       id="linearGradient3273"
       gradientUnits="userSpaceOnUse"
       gradientTransform="matrix(1.002789,3.45738e-17,-8.968446e-17,0.997219,-2042.942,43.39154)"
       x1="367.74787"
       y1="136.23061"
       x2="477.60735"
       y2="136.23061" />
    <linearGradient
       inkscape:collect="always"
       xlink:href="#linearGradient3131"
       id="linearGradient3275"
       gradientUnits="userSpaceOnUse"
       gradientTransform="matrix(0.736432,0,0,0.736432,472.2062,295.0614)"
       x1="-883.93469"
       y1="-42.988373"
       x2="-1294.4387"
       y2="288.19196" />
    <radialGradient
       inkscape:collect="always"
       xlink:href="#linearGradient3097"
       id="radialGradient3277"
       gradientUnits="userSpaceOnUse"
       gradientTransform="matrix(0.351284,-0.241522,5.030971e-2,7.317349e-2,13.83021,163.4149)"
       cx="-1243.9821"
       cy="210.0928"
       fx="-1243.9821"
       fy="210.0928"
       r="276.32545" />
  </defs>
  <path
     style="fill:url(#radialGradient3125);fill-opacity:1;fill-rule:evenodd;stroke:none;stroke-width:1px;stroke-linecap:butt;stroke-linejoin:miter;stroke-opacity:1"
     d="M -945.61632,27.062723 C -1056.7736,187.4961 -956.86099,255.60866 -907.58511,287.69534 C -844.056,329.06317 -712.7732,280.81962 -662.3513,248.73295 C -611.9294,216.64627 -495.61521,130.12685 -462.95556,41.315513 C -430.29591,-47.495823 -439.28862,-90.46069 -485.30164,-150.63157 C -507.64772,-179.85336 -545.4641,-192.45884 -545.4641,-192.45884 C -545.4641,-192.45884 -495.04224,-154.06942 -527.70189,-84.739286 C -560.3615,-15.409148 -635.4214,77.413023 -694.438,117.52136 C -753.4546,157.62971 -826.8215,192.62824 -874.35257,194.30019 C -988.37463,198.31103 -951.34612,60.295353 -945.61632,27.062723 z "
     id="path2222"
     sodipodi:nodetypes="csssscsssc" />
  <path
     inkscape:export-ydpi="12.47"
     inkscape:export-xdpi="12.47"
     inkscape:export-filename="D:\Desktop\text3197.png"
     id="path3231"
     d="M -546.26979,535.58314 C -545.84779,507.31195 -554.70899,444.44019 -439.09239,346.12394 C -323.47589,247.8077 -231.06709,287.0498 -231.06709,287.0498 C -231.06709,287.0498 -248.36729,221.64631 -279.59229,214.47302 C -310.81719,207.29973 -378.33049,207.29973 -478.33459,288.31568 C -578.33859,369.33164 -655.13499,466.80396 -546.26979,535.58314 z "
     style="fill:#ffb737;fill-opacity:1;fill-rule:evenodd;stroke:#000000;stroke-width:0.73915356;stroke-linecap:butt;stroke-linejoin:miter;stroke-miterlimit:4;stroke-dasharray:none;stroke-opacity:1" />
  <path
     inkscape:export-ydpi="12.47"
     inkscape:export-xdpi="12.47"
     inkscape:export-filename="D:\Desktop\text3197.png"
     style="fill:url(#radialGradient3261);fill-opacity:1;fill-rule:evenodd;stroke:none;stroke-width:1px;stroke-linecap:butt;stroke-linejoin:miter;stroke-opacity:1"
     d="M -546.05859,535.58313 C -545.63669,507.31193 -554.49779,444.44018 -438.88129,346.12395 C -323.26469,247.80772 -230.85589,287.04982 -230.85589,287.04982 C -230.85589,287.04982 -248.15619,221.64633 -279.38109,214.47304 C -310.60599,207.29975 -378.11929,207.29975 -478.12339,288.31569 C -578.12749,369.33165 -654.92379,466.80396 -546.05859,535.58313 z "
     id="path3233" />
  <g
     inkscape:export-ydpi="12.47"
     inkscape:export-xdpi="12.47"
     inkscape:export-filename="D:\Desktop\text3197.png"
     transform="translate(112.5472,420.7892)"
     id="g3235">
    <rect
       height="139.46495"
       id="rect3237"
       ry="14.593018"
       style="font-size:12px;fill:url(#linearGradient3263);fill-rule:evenodd;stroke:#acb0b0;stroke-width:1pt;stroke-opacity:1"
       width="222.76657"
       x="-632.15399"
       y="-91.304276" />
    <rect
       height="107.05391"
       id="rect3239"
       ry="8.1213379"
       style="font-size:12px;fill:url(#linearGradient3265);fill-rule:evenodd;stroke:url(#linearGradient3267);stroke-width:2.5;stroke-dasharray:none;stroke-opacity:1"
       width="185.31398"
       x="-612.48993"
       y="-76.495956" />
    <text
       id="text3241"
       sodipodi:linespacing="100%"
       style="font-size:52.97558975px;font-style:normal;font-weight:normal;line-height:100%;writing-mode:lr-tb;text-anchor:start;fill:#000000;fill-opacity:1;stroke:none;stroke-width:1pt;stroke-linecap:butt;stroke-linejoin:miter;stroke-opacity:1;font-family:Arial"
       x="-602.70685"
       y="-26.590662">
      <tspan
         id="tspan3243"
         sodipodi:role="line"
         x="-602.70685"
         y="-26.590662">Ctrl</tspan>
    </text>
  </g>
  <g
     inkscape:export-ydpi="12.47"
     inkscape:export-xdpi="12.47"
     inkscape:export-filename="D:\Desktop\text3197.png"
     transform="matrix(0.923945,0.382524,-0.382524,0.923945,1251.344,987.1251)"
     id="g3245">
    <rect
       height="139.46495"
       id="rect3247"
       ry="20.669067"
       style="font-size:12px;fill:url(#linearGradient3269);fill-rule:evenodd;stroke:#acb0b0;stroke-width:0.81659002pt"
       width="148.54411"
       x="-1692.5822"
       y="110.90795" />
    <rect
       height="107.05391"
       id="rect3249"
       rx="7.5169373"
       ry="10.325302"
       style="font-size:12px;fill:url(#linearGradient3271);fill-rule:evenodd;stroke:url(#linearGradient3273);stroke-width:2.5;stroke-dasharray:none"
       width="107.66589"
       x="-1672.9181"
       y="125.71625" />
    <text
       id="text3251"
       sodipodi:linespacing="100%"
       style="font-size:61.80485535px;font-style:normal;font-weight:normal;line-height:100%;writing-mode:lr-tb;text-anchor:start;fill:#000000;fill-opacity:1;stroke:none;stroke-width:1pt;stroke-linecap:butt;stroke-linejoin:miter;stroke-opacity:1;font-family:Arial"
       x="-1660.0415"
       y="182.76558">
      <tspan
         id="tspan3253"
         sodipodi:role="line"
         x="-1660.0415"
         y="182.76558">X</tspan>
    </text>
  </g>
  <path
     inkscape:export-ydpi="12.47"
     inkscape:export-xdpi="12.47"
     inkscape:export-filename="D:\Desktop\text3197.png"
     sodipodi:nodetypes="csssscsssc"
     id="path3255"
     d="M -568.36979,378.24551 C -650.22969,496.39378 -576.65079,546.55405 -540.36239,570.1837 C -493.57739,600.64829 -396.89659,565.1202 -359.76429,541.49056 C -322.63199,517.8609 -236.97449,454.14523 -212.92279,388.74172 C -188.87129,323.3382 -195.49379,291.6975 -229.37919,247.38574 C -245.83559,225.86587 -273.68479,216.58281 -273.68479,216.58281 C -273.68479,216.58281 -236.55249,244.85399 -260.60409,295.91092 C -284.65569,346.96785 -339.93219,415.32508 -383.39399,444.86214 C -426.85569,474.39921 -480.88539,500.17325 -515.88879,501.40453 C -599.85849,504.35824 -572.58949,402.71908 -568.36979,378.24551 z "
     style="fill:#fcc753;fill-opacity:1;fill-rule:evenodd;stroke:url(#linearGradient3275);stroke-width:0.73915356;stroke-linecap:butt;stroke-linejoin:miter;stroke-miterlimit:4;stroke-dasharray:none;stroke-opacity:1" />
  <path
     inkscape:export-ydpi="12.47"
     inkscape:export-xdpi="12.47"
     inkscape:export-filename="D:\Desktop\text3197.png"
     style="fill:url(#radialGradient3277);fill-opacity:1;fill-rule:evenodd;stroke:none;stroke-width:1px;stroke-linecap:butt;stroke-linejoin:miter;stroke-opacity:1"
     d="M -568.15869,378.24551 C -650.01849,496.39377 -576.43959,546.55403 -540.15119,570.18368 C -493.36629,600.64827 -396.68539,565.12018 -359.55309,541.49054 C -322.42079,517.86089 -236.76339,454.14522 -212.71169,388.74172 C -188.66009,323.33822 -195.28269,291.69751 -229.16809,247.38576 C -245.62449,225.8659 -273.47369,216.58282 -273.47369,216.58282 C -273.47369,216.58282 -236.34139,244.85402 -260.39299,295.91094 C -284.44459,346.96786 -339.72109,415.32508 -383.18279,444.86214 C -426.64449,474.3992 -480.67419,500.17324 -515.67769,501.40452 C -599.64729,504.35823 -572.37829,402.71908 -568.15869,378.24551 z "
     id="path3257"
     sodipodi:nodetypes="csssscsssc" />
  <path
     style="fill:none;fill-opacity:1;fill-rule:evenodd;stroke:none;stroke-width:0.73915339;stroke-linecap:butt;stroke-linejoin:miter;stroke-miterlimit:4;stroke-dasharray:none;stroke-opacity:1"
     d="M -569.49599,378.46467 C -652.11249,495.97811 -577.85349,545.86885 -541.22959,569.37155 C -494.01219,599.67245 -396.43769,564.33525 -358.96219,540.83257 C -321.48659,517.32988 -235.03739,453.95657 -210.76339,388.90448 C -186.48959,323.85239 -193.17329,292.38171 -227.37199,248.30804 C -243.98039,226.90381 -272.08699,217.67061 -272.08699,217.67061 C -272.08699,217.67061 -234.61159,245.7899 -258.88549,296.57249 C -283.15939,347.35508 -338.94689,415.345 -382.81029,444.72336 C -426.67369,474.10172 -481.20279,499.73727 -516.52979,500.96193 C -601.27559,503.89977 -573.75449,402.80674 -569.49599,378.46467 z "
     id="path3224"
     sodipodi:nodetypes="csssscsssc"
     inkscape:export-filename="D:\Desktop\text3197.png"
     inkscape:export-xdpi="12.47"
     inkscape:export-ydpi="12.47" />
  <path
     style="font-size:79.13232422px;font-style:normal;font-variant:normal;font-weight:normal;font-stretch:normal;text-align:start;line-height:100%;writing-mode:lr-tb;text-anchor:start;fill:#000000;fill-opacity:1;fill-rule:nonzero;stroke:none;stroke-width:1px;stroke-linecap:butt;stroke-linejoin:miter;stroke-opacity:1;font-family:Arial"
     d="M -568.00859,518.35967 C -570.67089,518.67907 -573.66999,517.08674 -577.00639,513.58268 C -578.33429,512.18802 -579.10399,509.99679 -579.31579,507.00897 C -579.49569,504.01953 -578.98609,501.77181 -577.78689,500.26581 C -575.47969,497.3682 -572.31319,495.68816 -568.28739,495.22564 C -564.22979,494.76153 -560.94789,495.84568 -558.44149,498.47809 C -556.59909,500.41317 -555.45179,502.89588 -554.99959,505.92621 C -554.52509,509.11996 -555.06199,511.68907 -556.61029,513.63352 C -557.53619,514.79637 -559.33479,515.83029 -562.00609,516.73527 C -562.46189,516.88664 -564.46279,517.4281 -568.00859,518.35967 M -562.12659,512.40801 C -561.04889,511.05452 -561.06699,508.9527 -562.18079,506.10259 C -563.11589,503.75528 -564.27219,501.85814 -565.64989,500.41118 C -566.69559,499.3129 -567.42229,498.63708 -567.83019,498.38372 C -568.44969,498.01324 -569.37209,497.832 -570.59759,497.84001 C -572.16109,499.80353 -572.70439,502.2084 -572.22759,505.05461 C -571.81329,507.52007 -570.90899,509.48499 -569.51469,510.94938 C -568.53539,511.97793 -567.36089,512.70392 -565.99119,513.12735 C -564.23449,513.6772 -562.94629,513.43741 -562.12659,512.40801 M -555.89179,524.31596 C -556.89019,525.97278 -558.21519,526.94591 -559.86669,527.23534 C -560.90519,527.41521 -562.51839,527.02825 -564.70639,526.07445 C -561.35959,522.60865 -558.80919,519.42073 -557.05559,516.51067 L -555.55789,514.02544 C -554.68749,512.58104 -554.49779,510.97254 -554.98869,509.19993 C -553.45959,508.75042 -551.28739,508.0737 -548.47229,507.16977 C -548.02389,508.87703 -548.41699,511.14072 -549.65149,513.96082 C -547.26019,513.44256 -545.33909,513.27317 -543.88809,513.45265 C -542.13829,513.68113 -540.40349,514.47898 -538.68339,515.84619 C -537.12979,517.08112 -536.13529,518.97127 -535.69959,521.51665 C -535.24559,524.07674 -535.55619,526.24892 -536.63139,528.0332 C -538.06509,530.41221 -540.86229,532.39851 -545.02299,533.9921 C -549.39719,535.6674 -552.58299,535.71118 -554.58049,534.12344 C -555.37579,533.49128 -555.68319,531.95883 -555.50279,529.52608 L -550.32629,527.60885 C -549.85669,529.553 -549.19649,530.86319 -548.34569,531.53946 C -546.84769,532.73027 -545.39459,532.1574 -543.98649,529.82086 C -542.92409,528.05783 -542.43429,525.99672 -542.51699,523.63754 C -542.61549,521.07739 -543.40449,519.20926 -544.88409,518.03315 C -546.28969,516.91586 -548.51239,516.60986 -551.55239,517.11516 L -555.89179,524.31596 M -520.90159,541.2622 C -523.67429,544.76222 -526.41399,547.2455 -529.12059,548.71206 C -530.20149,549.29389 -532.26249,548.87289 -535.30339,547.44905 C -537.78199,546.28853 -539.50009,544.35425 -540.45759,541.64621 C -541.39449,538.94793 -541.35759,536.17549 -540.34709,533.32888 C -539.14129,529.93211 -536.93279,527.20014 -533.72139,525.13297 C -530.34649,522.94715 -527.21149,522.53202 -524.31639,523.88757 C -522.15029,524.90183 -520.36549,526.85341 -518.96199,529.74231 L -524.69219,533.67079 C -524.83799,533.60254 -525.46809,532.77746 -526.58259,531.19554 C -527.69709,529.61364 -528.67079,528.62764 -529.50389,528.23753 C -531.06609,527.50613 -532.19709,527.33923 -532.89689,527.73686 C -533.42079,528.04951 -533.93329,528.91149 -534.43419,530.32282 C -535.31729,532.81061 -535.32479,535.19231 -534.45659,537.46793 C -533.56749,539.7533 -532.03989,541.4031 -529.87379,542.41735 C -526.47879,544.00697 -523.48809,543.62192 -520.90159,541.2622 M -518.82439,536.33456 C -523.00889,539.84305 -526.34049,541.01704 -528.81899,539.85651 C -529.86049,539.3689 -531.16829,538.36597 -532.74259,536.84773 C -534.31679,535.32949 -535.48929,534.38995 -536.25989,534.0291 C -537.53039,533.43423 -539.00319,533.51179 -540.67829,534.2618 C -536.72449,530.92426 -533.37299,529.89915 -530.62359,531.18644 C -529.83219,531.55704 -528.78009,532.35655 -527.46719,533.58496 C -526.13349,534.82316 -525.07099,535.62755 -524.27949,535.99812 C -522.80079,536.69054 -520.98239,536.80269 -518.82439,536.33456 M -509.56559,555.18224 L -497.98449,535.52952 C -494.93999,530.68681 -493.42119,527.10299 -493.42809,524.77804 C -491.67899,522.98872 -489.61179,522.29599 -487.22639,522.69988 C -488.14649,523.40103 -490.37419,526.81973 -493.90979,532.95601 C -495.43359,534.87366 -497.50489,537.96884 -500.12369,542.24155 C -499.76469,541.956 -499.32649,541.81218 -498.80919,541.81013 C -497.57209,541.80526 -495.45469,542.85606 -492.45679,544.96251 C -489.43659,547.04306 -487.49909,548.08164 -486.64439,548.07827 C -486.23959,548.07668 -485.25179,547.46572 -483.68089,546.24537 C -485.38039,549.55867 -486.47639,551.6167 -486.96879,552.41945 C -488.04319,554.20614 -488.95139,555.10096 -489.69359,555.10389 C -490.70579,555.10788 -492.81199,554.05704 -496.01229,551.95137 C -499.19009,549.81979 -501.38629,548.75639 -502.60089,548.76118 C -503.25309,548.76375 -503.76979,548.98537 -504.15089,549.42602 L -508.08469,554.01393 C -508.33129,554.27323 -508.82499,554.66267 -509.56559,555.18224 M -502.83949,547.94839 C -502.83339,549.98915 -503.44689,551.6707 -504.68009,552.99303 C -505.89069,554.31527 -507.39549,555.04452 -509.19449,555.18079 C -508.17539,549.95855 -507.67409,544.6092 -507.69049,539.13271 L -507.76389,514.56605 C -507.76919,512.80949 -508.41459,511.3654 -509.70009,510.23378 C -508.66949,508.86063 -507.22459,506.87873 -505.36549,504.28808 C -504.14759,505.39413 -503.34199,507.75464 -502.94879,511.36963 L -502.83949,547.94839 M -464.68069,539.58075 C -465.54399,544.20762 -466.82399,547.93668 -468.52089,550.76797 C -469.20019,551.89537 -471.16589,552.72225 -474.41759,553.24861 C -477.06799,553.67763 -479.40009,552.99857 -481.41389,551.21142 C -483.40539,549.42067 -484.58789,547.00329 -484.96149,543.95929 C -485.40719,540.32698 -484.69509,536.68985 -482.82509,533.04788 C -480.86579,529.20887 -478.33809,527.0388 -475.24229,526.53764 C -472.92599,526.16272 -470.52859,526.81818 -468.05029,528.50402 L -471.28189,535.20996 C -471.43779,535.23522 -472.34389,534.8862 -473.99989,534.16291 C -475.65599,533.43966 -476.92949,533.15013 -477.82039,533.29432 C -479.49079,533.56473 -480.54139,534.07392 -480.97199,534.8219 C -481.28779,535.3948 -481.35319,536.43585 -481.16789,537.94503 C -480.84149,540.60535 -479.80469,542.66803 -478.05759,544.13311 C -476.28819,545.59459 -474.24539,546.13786 -471.92899,545.76291 C -468.29859,545.17526 -465.88249,543.11455 -464.68069,539.58075 M -465.04399,534.12195 C -467.12369,539.57183 -469.48869,542.51128 -472.13909,542.9403 C -473.25279,543.12057 -474.82229,543.0094 -476.84789,542.60682 C -478.87349,542.20425 -480.29839,542.06965 -481.12239,542.20304 C -482.48109,542.42297 -483.71989,543.34092 -484.83909,544.95691 C -482.88379,539.78808 -480.43629,536.96573 -477.49639,536.48981 C -476.64999,536.35283 -475.39049,536.43592 -473.71779,536.73908 C -472.02289,537.03868 -470.75219,537.11997 -469.90589,536.98294 C -468.32449,536.72699 -466.70389,535.77333 -465.04399,534.12195 M -441.41239,532.1985 C -441.71619,533.26849 -443.48309,537.78392 -446.71329,545.74478 C -449.38219,552.32361 -450.69589,556.6845 -450.65419,558.82745 C -450.64459,559.19714 -450.59959,559.57014 -450.51909,559.94644 C -450.22929,561.3011 -449.62749,562.38152 -448.71389,563.18773 C -447.65879,564.11361 -446.44319,564.38237 -445.06709,563.99404 C -444.47739,563.82759 -443.59959,563.22078 -442.43399,562.17359 C -442.81019,563.66301 -443.32119,565.49639 -443.96709,567.67377 C -444.85299,569.81242 -445.85289,571.03894 -446.96679,571.35334 C -448.77979,571.86495 -450.33309,571.47871 -451.62699,570.19461 C -452.64909,569.2062 -453.32919,567.92179 -453.66729,566.34136 C -454.15039,564.08358 -452.71019,557.82487 -449.34639,547.56522 C -449.74899,545.68375 -451.50869,542.70896 -454.62589,538.64082 C -457.96019,534.31484 -460.31539,532.34601 -461.69149,532.73435 C -462.08469,532.84533 -462.91959,533.70608 -464.19639,535.31663 C -463.12659,528.94971 -461.78349,525.53817 -460.16719,525.08198 C -457.76449,524.40393 -453.04019,529.0559 -445.99419,539.03789 C -445.39969,537.48684 -444.80779,535.92323 -444.21839,534.34707 C -443.61739,532.50159 -443.46709,530.87642 -443.76769,529.47155 C -443.84819,529.09529 -443.95879,528.74078 -444.09939,528.40804 C -444.70879,527.9416 -445.41759,527.82242 -446.22579,528.05048 C -447.42709,528.38953 -448.83859,529.5327 -450.46019,531.47998 C -449.55669,528.99056 -448.13539,525.783 -446.19589,521.85729 C -445.60379,521.05183 -444.95829,520.55045 -444.25939,520.35316 C -443.47299,520.13128 -442.62799,520.29182 -441.72439,520.83479 C -440.76099,521.44076 -440.15579,522.3207 -439.90889,523.47464 C -439.66729,524.60356 -439.76529,526.09427 -440.20269,527.94677 C -440.59509,529.36095 -440.99819,530.77819 -441.41239,532.1985 M -392.97579,498.07319 C -392.00369,503.48654 -394.77529,507.75844 -401.29079,510.88888 C -402.97159,511.69645 -405.33989,512.62434 -408.39579,513.67257 C -411.43969,514.68705 -413.40779,515.40863 -414.29999,515.8373 C -416.12599,516.71465 -417.27449,519.78665 -417.74549,525.05328 C -418.18929,529.85889 -417.98159,533.44133 -417.12219,535.80062 C -415.74199,539.58979 -413.14079,542.24628 -409.31859,543.77009 C -405.63499,545.24843 -402.12269,545.18504 -398.78199,543.57993 C -396.76929,542.61287 -394.70549,540.94924 -392.59059,538.58904 C -390.05259,535.71746 -389.12209,533.35225 -389.79919,531.4934 C -390.13779,530.564 -391.18489,529.597 -392.94049,528.59239 L -391.18909,521.9545 C -390.62889,521.68535 -389.86129,521.91856 -388.88629,522.65417 C -387.89919,523.35601 -387.27979,524.05248 -387.02799,524.74356 C -386.11649,527.24586 -386.45959,531.02295 -388.05719,536.07485 C -389.48249,540.5959 -390.92139,543.80748 -392.37419,545.70955 C -394.01179,547.84044 -396.68769,549.79817 -400.40189,551.58275 C -403.63889,553.13801 -407.28619,553.09829 -411.34379,551.46359 C -415.49839,549.76345 -418.24409,547.07839 -419.58089,543.40839 C -420.70069,540.33415 -420.94829,535.97282 -420.32379,530.32439 C -419.82599,525.80088 -418.92909,521.43569 -417.63329,517.22879 C -418.03319,517.00095 -418.72079,517.12131 -419.69599,517.58986 C -420.92029,518.17809 -422.22979,519.10127 -423.62449,520.3594 C -424.99839,521.6076 -425.80509,522.63925 -426.04459,523.45434 C -427.07309,517.28404 -423.82119,512.38939 -416.28909,508.77037 C -414.40079,507.86317 -411.40729,506.67691 -407.30859,505.2116 C -403.19779,503.71256 -400.27079,502.5443 -398.52789,501.70681 C -396.12089,500.55037 -394.27029,499.33916 -392.97579,498.07319 M -369.62049,507.30538 C -370.14799,510.31929 -372.36489,513.13324 -376.27119,515.74724 C -377.82589,516.78764 -379.87649,516.9789 -382.42299,516.32103 C -384.96139,515.62783 -386.67779,514.39958 -387.57239,512.63627 C -389.29349,509.24361 -389.74669,505.27152 -388.93189,500.71999 C -388.10909,496.13318 -386.23029,492.85788 -383.29569,490.8941 C -381.13859,489.45058 -378.73319,488.93225 -376.07979,489.33913 C -373.28389,489.77033 -371.30849,491.12424 -370.15349,493.40088 C -369.46269,494.76244 -369.13909,497.04233 -369.18259,500.24058 C -369.19259,500.78541 -369.33849,503.14034 -369.62049,507.30538 M -372.81529,499.08373 C -373.61919,497.49902 -375.37159,496.89274 -378.07229,497.26491 C -380.30189,497.59089 -382.22319,498.29358 -383.83619,499.37298 C -385.06059,500.19231 -385.83879,500.78782 -386.17079,501.1595 C -386.66329,501.72823 -387.08869,502.68561 -387.44709,504.03164 C -386.28079,506.33065 -384.44379,507.64264 -381.93609,507.96763 C -379.76329,508.24783 -377.86089,507.84171 -376.22839,506.74928 C -375.08169,505.982 -374.12849,504.91057 -373.36849,503.53498 C -372.38819,501.7728 -372.20379,500.28904 -372.81529,499.08373 M -349.25479,486.935 L -340.67799,479.5295 C -339.96539,478.32718 -340.00609,477.09932 -340.79999,475.84592 C -341.88499,474.13297 -343.41979,472.93953 -345.40419,472.26556 C -347.54079,471.5271 -349.32769,471.75812 -350.76459,472.95864 C -352.21969,474.1744 -353.21159,476.47263 -353.74039,479.85336 L -349.25479,486.935 M -355.70529,476.75124 C -355.33189,473.91562 -354.83689,471.77699 -354.22019,470.33534 C -353.45979,468.54996 -352.22469,466.94301 -350.51489,465.51449 C -348.98699,464.23799 -347.10509,463.78379 -344.86939,464.15188 C -342.62859,464.48395 -340.95239,465.52734 -339.84089,467.28205 C -338.71629,469.05771 -338.18589,472.46393 -338.24979,477.50073 C -336.70379,476.20902 -335.75889,475.13202 -335.41489,474.26969 C -334.35929,480.06416 -334.41349,483.44767 -335.57749,484.42025 L -350.85609,497.18549 C -352.60119,492.19073 -354.87639,487.47904 -357.68159,483.05039 L -370.26499,463.18421 C -371.16479,461.76374 -372.42419,461.02701 -374.04319,460.97404 C -373.90769,459.16787 -373.74669,456.58962 -373.56029,453.23927 C -372.00909,453.31696 -370.15269,454.68889 -367.99099,457.35507 L -355.70529,476.75124 M -337.47949,462.17656 C -338.77309,463.33797 -339.56099,464.34047 -339.84329,465.18408 C -341.04889,459.51197 -341.10039,456.16458 -339.99789,455.1419 L -335.28139,450.80915 L -324.97519,465.95121 C -323.89469,467.53869 -323.47969,469.28096 -323.73009,471.17802 C -323.88939,472.37022 -324.69079,474.02415 -326.13419,476.13981 C -328.01639,471.40303 -329.89949,467.6507 -331.78339,464.88279 L -333.40419,462.50157 C -334.01369,461.60609 -334.81389,460.99661 -335.80489,460.67311 L -337.47949,462.17656 M -341.40439,442.19071 L -342.02519,448.01071 L -345.76659,447.48425 L -345.14579,441.66425 L -341.40439,442.19071 M -317.86709,459.389 C -316.73699,460.9304 -316.26729,462.65422 -316.45759,464.56048 C -316.57909,465.75853 -317.32759,467.44476 -318.70319,469.6192 C -320.73659,465.00041 -322.74569,461.33737 -324.73029,458.63005 L -326.42519,456.31797 C -327.41029,454.97421 -328.71189,454.34175 -330.32999,454.42059 C -330.30629,452.60792 -330.30479,450.02305 -330.32529,446.66596 C -328.77319,446.61729 -326.97449,447.64709 -324.92919,449.75535 C -324.73689,446.96928 -324.37499,444.79576 -323.84339,443.23479 C -323.19209,441.35565 -322.06639,439.64242 -320.46629,438.09508 C -319.02089,436.69755 -317.17179,436.09145 -314.91879,436.27681 C -312.64879,436.44559 -310.90529,437.35993 -309.68839,439.01985 C -308.06589,441.23315 -307.13129,444.85448 -306.88459,449.88383 C -306.62519,455.17114 -307.42459,458.71322 -309.28279,460.51008 C -310.02269,461.22551 -311.39089,461.16398 -313.38759,460.32551 L -313.63959,454.0856 C -311.88289,454.07542 -310.60879,453.68766 -309.81739,452.92231 C -308.42359,451.57468 -308.52349,449.81397 -310.11709,447.64021 C -311.31939,446.00004 -312.92249,444.91619 -314.92639,444.38866 C -317.10319,443.8258 -318.87979,444.20986 -320.25639,445.54086 C -321.56399,446.80533 -322.40449,449.18836 -322.77789,452.68991 L -317.86709,459.389 M -289.62519,432.86994 C -289.67419,435.60933 -289.92799,437.78663 -290.38629,439.40185 C -290.94609,441.34356 -291.96429,443.12827 -293.44109,444.75599 C -294.82049,446.27639 -296.63169,447.03752 -298.87479,447.03936 C -301.13339,447.02258 -302.92459,446.22207 -304.24839,444.63783 C -305.68119,442.92314 -306.65839,440.18694 -307.17969,436.42922 C -307.68939,432.90931 -307.65139,429.89562 -307.06559,427.38812 C -306.58239,425.28022 -305.35909,423.14407 -303.39549,420.97971 C -302.64889,420.15693 -301.81229,419.62858 -300.88539,419.39465 L -312.58949,405.38818 C -312.86779,399.60826 -312.79039,396.17528 -312.35739,395.08923 C -309.95849,399.7135 -307.11609,403.9919 -303.82979,407.92448 L -289.01869,425.64923 C -288.67609,426.05929 -287.96829,426.51448 -286.89559,427.01482 C -285.74429,427.57186 -285.10139,427.65098 -284.96699,427.25219 C -284.68129,426.40026 -284.18959,425.58971 -283.49169,424.82054 C -283.11849,424.40917 -282.47939,423.8122 -281.57459,423.02965 C -280.65349,422.22926 -279.97389,421.58758 -279.53569,421.1046 C -278.77309,420.26394 -278.18419,419.36433 -277.76929,418.40576 C -277.39889,419.03574 -277.08949,420.41332 -276.84109,422.53849 C -276.56229,424.73754 -276.58689,426.10722 -276.91469,426.64757 C -277.01269,426.79144 -277.13479,426.94385 -277.28079,427.10482 C -277.55669,427.40892 -278.28329,428.01296 -279.46089,428.91691 C -280.63829,429.82091 -281.57589,430.65748 -282.27379,431.4266 C -283.24749,432.49984 -284.00829,433.67858 -284.55619,434.96281 C -286.56499,435.20772 -288.08329,434.71511 -289.11119,433.48499 L -289.62519,432.86994 M -295.58229,425.74089 C -297.89739,425.32085 -299.76209,425.51433 -301.17639,426.32135 C -301.75479,426.63658 -302.43339,427.22348 -303.21239,428.08203 C -304.99749,430.04963 -305.86999,431.69162 -305.82989,433.00801 C -305.81309,433.84885 -305.31419,434.85636 -304.33299,436.03055 C -303.05589,437.55887 -301.38669,438.5118 -299.32549,438.88932 C -297.10509,439.27062 -295.35399,438.75473 -294.07199,437.34164 C -292.83859,435.98224 -292.12729,433.56909 -291.93789,430.10219 L -295.58229,425.74089 M -257.22469,359.38102 C -254.00279,363.48695 -254.51339,368.78205 -258.75659,375.26635 C -259.85109,376.93909 -261.48599,379.11492 -263.66109,381.79384 C -265.84059,384.43667 -267.22089,386.20205 -267.80199,387.09 C -268.99109,388.9073 -268.62959,392.2246 -266.71749,397.04196 C -264.98479,401.44581 -263.22839,404.41596 -261.44829,405.95244 C -258.58939,408.42011 -255.17579,409.20154 -251.20729,408.29674 C -247.37829,407.43311 -244.37599,405.3389 -242.20029,402.01413 C -240.88959,400.01101 -239.84139,397.37728 -239.05579,394.11291 C -238.13029,390.1616 -238.36869,387.58065 -239.77119,386.37007 C -240.47249,385.76482 -241.80159,385.53857 -243.75859,385.69131 L -245.16979,378.9474 C -244.80489,378.38987 -244.03999,378.14533 -242.87489,378.21377 C -241.71429,378.24612 -240.87339,378.48733 -240.35189,378.93737 C -238.46389,380.56699 -237.09709,384.02494 -236.25149,389.31123 C -235.49069,394.03948 -235.31849,397.64591 -235.73439,400.13051 C -236.20909,402.9199 -237.65589,406.16283 -240.07479,409.85932 C -242.18289,413.08084 -245.34709,415.16453 -249.56749,416.11038 C -253.90049,417.0561 -257.45139,416.33393 -260.22029,413.94385 C -262.53989,411.94178 -264.67349,408.3228 -266.62139,403.08689 C -268.18329,398.89509 -269.33119,394.60816 -270.06519,390.2261 C -270.51059,390.26178 -271.05079,390.76491 -271.68589,391.73547 C -272.48319,392.95388 -273.20649,394.51077 -273.85599,396.40613 C -274.49189,398.28087 -274.73379,399.63938 -274.58159,400.48169 C -278.18519,395.75542 -277.53439,389.64417 -272.62919,382.14791 C -271.39939,380.26873 -269.33899,377.50698 -266.44779,373.86265 C -263.56109,370.18224 -261.55029,367.47468 -260.41499,365.73998 C -258.84759,363.34453 -257.78409,361.22489 -257.22469,359.38102 M -241.66289,363.12215 C -240.10109,364.03999 -239.08619,365.41989 -238.61819,367.26184 C -238.32589,368.42029 -238.44679,370.30793 -238.98099,372.9248 C -242.55439,369.49 -246.46359,366.52528 -250.70869,364.03065 L -269.75089,352.84013 C -271.11249,352.03999 -272.52579,352.03645 -273.99089,352.8295 C -274.58079,351.14801 -275.45179,348.76452 -276.60379,345.67905 C -275.18939,344.94322 -272.99359,345.20352 -270.01619,346.45994 L -251.42439,357.38569 C -252.18749,354.73188 -252.58739,352.56715 -252.62419,350.89154 C -252.65799,348.86938 -252.19859,346.78894 -251.24579,344.65021 C -250.38509,342.71849 -248.88519,341.33658 -246.74579,340.50447 C -244.59629,339.64942 -242.68039,339.7161 -240.99849,340.7045 C -238.75579,342.02245 -236.67209,344.94456 -234.74719,349.47084 C -232.72359,354.22928 -232.26489,357.85033 -233.37159,360.33399 C -233.81199,361.32286 -235.09409,361.87527 -237.21759,361.99122 L -239.55589,356.35138 C -237.93999,355.55995 -236.89649,354.63528 -236.42519,353.5774 C -235.59519,351.71468 -236.28159,350.13611 -238.48419,348.84171 C -240.14609,347.86506 -241.98969,347.57964 -244.01489,347.98545 C -246.21149,348.43569 -247.71959,349.58067 -248.53929,351.4204 C -249.31799,353.16819 -249.28849,355.73908 -248.45089,359.13311 L -241.66289,363.12215 M -230.67999,320.17845 C -227.49169,323.17545 -225.18909,326.18776 -223.77239,329.21539 C -223.20989,330.42477 -223.46819,332.81052 -224.54719,336.37268 C -225.42659,339.2761 -227.01859,341.3478 -229.32309,342.58776 C -231.62029,343.80334 -234.03299,343.90612 -236.56099,342.89608 C -239.57749,341.69083 -242.06859,339.30069 -244.03399,335.72562 C -246.11109,331.96917 -246.63609,328.39525 -245.60879,325.00385 C -244.84019,322.46644 -243.23669,320.31731 -240.79819,318.55645 L -237.08249,324.92315 C -237.13429,325.09395 -237.81869,325.85983 -239.13599,327.22077 C -240.45309,328.58175 -241.25949,329.75019 -241.55509,330.72612 C -242.10939,332.55602 -242.19529,333.86187 -241.81299,334.6437 C -241.51379,335.22824 -240.73739,335.77089 -239.48399,336.27165 C -237.27469,337.15438 -235.20339,337.03833 -233.27009,335.9235 C -231.32949,334.7843 -229.97489,332.94597 -229.20629,330.40852 C -228.00169,326.43159 -228.49289,323.02158 -230.67999,320.17845 M -235.07339,318.05393 C -231.80379,322.66974 -230.60869,326.42933 -231.48819,329.33273 C -231.85769,330.55266 -232.66129,332.10513 -233.89909,333.99012 C -235.13689,335.87514 -235.89239,337.26902 -236.16589,338.17175 C -236.61669,339.66006 -236.47219,341.34518 -235.73249,343.2271 C -238.84119,338.86699 -239.90789,335.07663 -238.93239,331.85603 C -238.65159,330.9289 -238.01149,329.68036 -237.01199,328.11037 C -236.00519,326.51604 -235.36139,325.25529 -235.08049,324.32813 C -234.55579,322.59587 -234.55339,320.50447 -235.07339,318.05393 M -221.64499,297.71418 L -219.15489,282.20485 C -219.71069,281.53555 -220.55269,281.08143 -221.68079,280.84248 C -223.49459,280.4584 -225.33409,280.80434 -227.19939,281.88028 C -229.19559,283.05992 -230.35489,284.65319 -230.67709,286.66009 C -230.90959,288.10817 -230.54339,289.9588 -229.57859,292.21201 C -229.37539,292.22879 -229.16329,292.2606 -228.94209,292.30741 C -226.84069,292.75246 -224.40829,294.55472 -221.64499,297.71418 M -234.90189,311.69199 C -237.52999,307.40535 -238.53619,303.344 -237.92029,299.50793 C -237.38599,296.17999 -235.53419,293.90594 -232.36499,292.68578 C -234.68989,288.64725 -235.55869,284.79886 -234.97129,281.1406 C -234.62059,278.95587 -233.53529,277.11055 -231.71529,275.60462 C -229.89129,274.07338 -228.02809,273.50917 -226.12589,273.91198 C -223.93609,274.37579 -221.45939,276.18741 -218.69599,279.34687 C -218.51249,278.20372 -218.57889,276.83683 -218.89539,275.24623 C -218.82089,275.20952 -218.72829,275.20286 -218.61769,275.22622 C -217.53389,275.45581 -215.51779,277.64273 -212.56939,281.78702 L -219.17089,322.9039 C -221.45999,320.92183 -225.01559,319.42019 -229.83769,318.39899 L -232.42569,317.8509 C -233.92979,317.53237 -235.28479,317.99407 -236.49049,319.236 C -237.47509,317.81913 -238.90429,315.82219 -240.77769,313.24518 C -239.60629,312.07478 -237.64769,311.55706 -234.90189,311.69199 M -233.62609,305.02741 C -233.93599,306.95815 -233.26639,309.41156 -231.61719,312.38763 L -224.11859,313.97565 L -222.10389,300.57217 C -222.66369,299.92825 -223.50779,299.48684 -224.63589,299.2479 C -226.47169,298.85913 -228.30919,299.19235 -230.14829,300.2476 C -232.14049,301.40182 -233.29969,302.99509 -233.62609,305.02741"
     id="text2273"
     inkscape:export-filename="D:\Desktop\text3197.png"
     inkscape:export-xdpi="12.47"
     inkscape:export-ydpi="12.47" />
</svg>
